solid OpenSCAD_Model
  facet normal 0 0 -1
    outer loop
      vertex -11.2 0 0
      vertex -10.8965 1.9159 0
      vertex -10.8965 -1.9159 0
    endloop
  endfacet
  facet normal 0 0 -1
    outer loop
      vertex -10.8965 -1.9159 0
      vertex -10.8965 1.9159 0
      vertex -10.0159 3.64427 0
    endloop
  endfacet
  facet normal 0 0 -1
    outer loop
      vertex -10.8965 -1.9159 0
      vertex -10.0159 3.64427 0
      vertex -8.64427 5.01591 0
    endloop
  endfacet
  facet normal 0 0 -1
    outer loop
      vertex -10.8965 -1.9159 0
      vertex -8.64427 5.01591 0
      vertex -6.9159 5.89655 0
    endloop
  endfacet
  facet normal 0 0 -1
    outer loop
      vertex -10.8965 -1.9159 0
      vertex -6.9159 5.89655 0
      vertex -5 6.2 0
    endloop
  endfacet
  facet normal 0 0 -1
    outer loop
      vertex -4.55544 1.94776 0
      vertex -5 6.2 0
      vertex 5 6.2 0
    endloop
  endfacet
  facet normal 0 0 -1
    outer loop
      vertex 3.00215 2.44658e-016 0
      vertex -3.2 0.866834 0
      vertex 3.75436 1.56198 0
    endloop
  endfacet
  facet normal 0 0 -1
    outer loop
      vertex -3.2 0.866834 0
      vertex 6.9159 5.89655 0
      vertex 8.64427 5.01591 0
    endloop
  endfacet
  facet normal 0 0 -1
    outer loop
      vertex 5.44456 1.94776 0
      vertex 10.0159 3.64427 0
      vertex 10.8965 1.9159 0
    endloop
  endfacet
  facet normal 0 0 -1
    outer loop
      vertex 6.8 0.866834 0
      vertex 10.8965 1.9159 0
      vertex 11.2 0 0
    endloop
  endfacet
  facet normal 0 0 -1
    outer loop
      vertex 5.44456 -1.94776 0
      vertex 10.8965 -1.9159 0
      vertex 10.0159 -3.64427 0
    endloop
  endfacet
  facet normal 0 0 -1
    outer loop
      vertex -10.8965 -1.9159 0
      vertex 10.0159 -3.64427 0
      vertex 8.64427 -5.01591 0
    endloop
  endfacet
  facet normal 0 0 -1
    outer loop
      vertex -10.8965 -1.9159 0
      vertex 8.64427 -5.01591 0
      vertex 6.9159 -5.89655 0
    endloop
  endfacet
  facet normal 0 0 -1
    outer loop
      vertex -10.8965 -1.9159 0
      vertex 6.9159 -5.89655 0
      vertex 5 -6.2 0
    endloop
  endfacet
  facet normal 0 0 -1
    outer loop
      vertex -10.8965 -1.9159 0
      vertex 5 -6.2 0
      vertex -5 -6.2 0
    endloop
  endfacet
  facet normal 0 0 -1
    outer loop
      vertex -10.8965 -1.9159 0
      vertex -5 -6.2 0
      vertex -6.9159 -5.89655 0
    endloop
  endfacet
  facet normal 0 0 -1
    outer loop
      vertex -10.8965 -1.9159 0
      vertex -6.9159 -5.89655 0
      vertex -8.64427 -5.01591 0
    endloop
  endfacet
  facet normal 0 0 -1
    outer loop
      vertex -10.8965 -1.9159 0
      vertex -8.64427 -5.01591 0
      vertex -10.0159 -3.64427 0
    endloop
  endfacet
  facet normal 0 0 -1
    outer loop
      vertex -6.24564 -1.56198 0
      vertex -10.8965 -1.9159 0
      vertex -6.99785 2.44658e-016 0
    endloop
  endfacet
  facet normal 0 0 -1
    outer loop
      vertex -4.55544 -1.94776 0
      vertex -10.8965 -1.9159 0
      vertex -6.24564 -1.56198 0
    endloop
  endfacet
  facet normal 0 0 -1
    outer loop
      vertex 5.44456 -1.94776 0
      vertex -4.55544 -1.94776 0
      vertex 3.75436 -1.56198 0
    endloop
  endfacet
  facet normal 0 0 -1
    outer loop
      vertex -10.8965 -1.9159 0
      vertex -4.55544 -1.94776 0
      vertex 10.0159 -3.64427 0
    endloop
  endfacet
  facet normal 0 0 -1
    outer loop
      vertex 6.8 -0.866834 0
      vertex 10.8965 -1.9159 0
      vertex 5.44456 -1.94776 0
    endloop
  endfacet
  facet normal 0 0 -1
    outer loop
      vertex -6.24564 1.56198 0
      vertex -5 6.2 0
      vertex -4.55544 1.94776 0
    endloop
  endfacet
  facet normal 0 0 -1
    outer loop
      vertex -10.8965 -1.9159 0
      vertex -5 6.2 0
      vertex -6.24564 1.56198 0
    endloop
  endfacet
  facet normal 0 0 -1
    outer loop
      vertex -3.2 0.866834 0
      vertex 8.64427 5.01591 0
      vertex 10.0159 3.64427 0
    endloop
  endfacet
  facet normal 0 0 -1
    outer loop
      vertex 3.75436 -1.56198 0
      vertex -3.2 -0.866834 0
      vertex 3.00215 2.44658e-016 0
    endloop
  endfacet
  facet normal 0 0 -1
    outer loop
      vertex 6.8 0.866834 0
      vertex 11.2 0 0
      vertex 6.8 -0.866834 0
    endloop
  endfacet
  facet normal 0 0 -1
    outer loop
      vertex 6.8 -0.866834 0
      vertex 11.2 0 0
      vertex 10.8965 -1.9159 0
    endloop
  endfacet
  facet normal 0 0 -1
    outer loop
      vertex -4.55544 -1.94776 0
      vertex 5.44456 -1.94776 0
      vertex 10.0159 -3.64427 0
    endloop
  endfacet
  facet normal 0 0 -1
    outer loop
      vertex 5.44456 1.94776 0
      vertex 10.8965 1.9159 0
      vertex 6.8 0.866834 0
    endloop
  endfacet
  facet normal 0 0 -1
    outer loop
      vertex 3.75436 1.56198 0
      vertex 10.0159 3.64427 0
      vertex 5.44456 1.94776 0
    endloop
  endfacet
  facet normal 0 0 -1
    outer loop
      vertex -3.2 -0.866834 0
      vertex 3.75436 -1.56198 0
      vertex -4.55544 -1.94776 0
    endloop
  endfacet
  facet normal 0 0 -1
    outer loop
      vertex -6.99785 2.44658e-016 0
      vertex -10.8965 -1.9159 0
      vertex -6.24564 1.56198 0
    endloop
  endfacet
  facet normal 0 0 -1
    outer loop
      vertex 3.00215 2.44658e-016 0
      vertex -3.2 -0.866834 0
      vertex -3.2 0.866834 0
    endloop
  endfacet
  facet normal 0 0 -1
    outer loop
      vertex -4.55544 1.94776 0
      vertex 5 6.2 0
      vertex 6.9159 5.89655 0
    endloop
  endfacet
  facet normal 0 0 -1
    outer loop
      vertex -4.55544 1.94776 0
      vertex 6.9159 5.89655 0
      vertex -3.2 0.866834 0
    endloop
  endfacet
  facet normal 0 0 -1
    outer loop
      vertex -3.2 0.866834 0
      vertex 10.0159 3.64427 0
      vertex 3.75436 1.56198 0
    endloop
  endfacet
  facet normal -0.987688 0.156435 0
    outer loop
      vertex -11.2 0 0
      vertex -11.2 0 5.5
      vertex -10.8965 1.9159 0
    endloop
  endfacet
  facet normal -0.987688 0.156435 0
    outer loop
      vertex -10.8965 1.9159 0
      vertex -11.2 0 5.5
      vertex -10.8965 1.9159 5.5
    endloop
  endfacet
  facet normal -0.987688 -0.156435 0
    outer loop
      vertex -11.2 0 0
      vertex -10.8965 -1.9159 0
      vertex -11.2 0 5.5
    endloop
  endfacet
  facet normal -0.987688 -0.156435 0
    outer loop
      vertex -11.2 0 5.5
      vertex -10.8965 -1.9159 0
      vertex -10.8965 -1.9159 5.5
    endloop
  endfacet
  facet normal -0.891007 -0.45399 0
    outer loop
      vertex -10.8965 -1.9159 0
      vertex -10.0159 -3.64427 0
      vertex -10.8965 -1.9159 5.5
    endloop
  endfacet
  facet normal -0.891007 -0.45399 0
    outer loop
      vertex -10.8965 -1.9159 5.5
      vertex -10.0159 -3.64427 0
      vertex -10.0159 -3.64427 5.5
    endloop
  endfacet
  facet normal -0.707107 -0.707107 0
    outer loop
      vertex -10.0159 -3.64427 5.5
      vertex -10.0159 -3.64427 0
      vertex -8.64427 -5.01591 0
    endloop
  endfacet
  facet normal -0.707107 -0.707107 0
    outer loop
      vertex -8.64427 -5.01591 5.5
      vertex -10.0159 -3.64427 5.5
      vertex -8.64427 -5.01591 0
    endloop
  endfacet
  facet normal -0.45399 -0.891007 0
    outer loop
      vertex -8.64427 -5.01591 5.5
      vertex -8.64427 -5.01591 0
      vertex -6.9159 -5.89655 0
    endloop
  endfacet
  facet normal -0.45399 -0.891007 0
    outer loop
      vertex -6.9159 -5.89655 5.5
      vertex -8.64427 -5.01591 5.5
      vertex -6.9159 -5.89655 0
    endloop
  endfacet
  facet normal -0.156435 -0.987688 0
    outer loop
      vertex -6.9159 -5.89655 5.5
      vertex -6.9159 -5.89655 0
      vertex -5 -6.2 0
    endloop
  endfacet
  facet normal -0.156435 -0.987688 0
    outer loop
      vertex -5 -6.2 5.5
      vertex -6.9159 -5.89655 5.5
      vertex -5 -6.2 0
    endloop
  endfacet
  facet normal 0 -1 0
    outer loop
      vertex -5 -6.2 5.5
      vertex -5 -6.2 0
      vertex 5 -6.2 0
    endloop
  endfacet
  facet normal 0 -1 0
    outer loop
      vertex -3 -6.2 4.75
      vertex -5 -6.2 5.5
      vertex 5 -6.2 0
    endloop
  endfacet
  facet normal 0 -1 0
    outer loop
      vertex 5 -6.2 5.5
      vertex 3 -6.2 5.5
      vertex 5 -6.2 0
    endloop
  endfacet
  facet normal 0 -1 0
    outer loop
      vertex 3 -6.2 5.5
      vertex 3 -6.2 4.75
      vertex 5 -6.2 0
    endloop
  endfacet
  facet normal 0 -1 0
    outer loop
      vertex 3 -6.2 4.75
      vertex -3 -6.2 4.75
      vertex 5 -6.2 0
    endloop
  endfacet
  facet normal 0 -1 0
    outer loop
      vertex -3 -6.2 4.75
      vertex -3 -6.2 5.5
      vertex -5 -6.2 5.5
    endloop
  endfacet
  facet normal 0.156435 -0.987688 0
    outer loop
      vertex 5 -6.2 5.5
      vertex 5 -6.2 0
      vertex 6.9159 -5.89655 0
    endloop
  endfacet
  facet normal 0.156435 -0.987688 0
    outer loop
      vertex 6.9159 -5.89655 5.5
      vertex 5 -6.2 5.5
      vertex 6.9159 -5.89655 0
    endloop
  endfacet
  facet normal 0.45399 -0.891007 0
    outer loop
      vertex 6.9159 -5.89655 5.5
      vertex 6.9159 -5.89655 0
      vertex 8.64427 -5.01591 0
    endloop
  endfacet
  facet normal 0.45399 -0.891007 0
    outer loop
      vertex 8.64427 -5.01591 5.5
      vertex 6.9159 -5.89655 5.5
      vertex 8.64427 -5.01591 0
    endloop
  endfacet
  facet normal 0.707107 -0.707107 0
    outer loop
      vertex 8.64427 -5.01591 5.5
      vertex 8.64427 -5.01591 0
      vertex 10.0159 -3.64427 0
    endloop
  endfacet
  facet normal 0.707107 -0.707107 0
    outer loop
      vertex 10.0159 -3.64427 5.5
      vertex 8.64427 -5.01591 5.5
      vertex 10.0159 -3.64427 0
    endloop
  endfacet
  facet normal 0.891007 -0.45399 0
    outer loop
      vertex 10.0159 -3.64427 5.5
      vertex 10.0159 -3.64427 0
      vertex 10.8965 -1.9159 0
    endloop
  endfacet
  facet normal 0.891007 -0.45399 0
    outer loop
      vertex 10.8965 -1.9159 5.5
      vertex 10.0159 -3.64427 5.5
      vertex 10.8965 -1.9159 0
    endloop
  endfacet
  facet normal 0.987688 -0.156435 0
    outer loop
      vertex 10.8965 -1.9159 5.5
      vertex 10.8965 -1.9159 0
      vertex 11.2 0 0
    endloop
  endfacet
  facet normal 0.987688 -0.156435 0
    outer loop
      vertex 11.2 0 5.5
      vertex 10.8965 -1.9159 5.5
      vertex 11.2 0 0
    endloop
  endfacet
  facet normal 0.987688 0.156435 0
    outer loop
      vertex 11.2 0 0
      vertex 10.8965 1.9159 0
      vertex 10.8965 1.9159 5.5
    endloop
  endfacet
  facet normal 0.987688 0.156435 0
    outer loop
      vertex 11.2 0 5.5
      vertex 11.2 0 0
      vertex 10.8965 1.9159 5.5
    endloop
  endfacet
  facet normal 0.891007 0.45399 0
    outer loop
      vertex 10.8965 1.9159 0
      vertex 10.0159 3.64427 0
      vertex 10.0159 3.64427 5.5
    endloop
  endfacet
  facet normal 0.891007 0.45399 0
    outer loop
      vertex 10.8965 1.9159 5.5
      vertex 10.8965 1.9159 0
      vertex 10.0159 3.64427 5.5
    endloop
  endfacet
  facet normal 0.707107 0.707107 0
    outer loop
      vertex 8.64427 5.01591 0
      vertex 8.64427 5.01591 5.5
      vertex 10.0159 3.64427 0
    endloop
  endfacet
  facet normal 0.707107 0.707107 0
    outer loop
      vertex 10.0159 3.64427 0
      vertex 8.64427 5.01591 5.5
      vertex 10.0159 3.64427 5.5
    endloop
  endfacet
  facet normal 0.45399 0.891007 0
    outer loop
      vertex 6.9159 5.89655 0
      vertex 6.9159 5.89655 5.5
      vertex 8.64427 5.01591 0
    endloop
  endfacet
  facet normal 0.45399 0.891007 0
    outer loop
      vertex 8.64427 5.01591 0
      vertex 6.9159 5.89655 5.5
      vertex 8.64427 5.01591 5.5
    endloop
  endfacet
  facet normal 0.156435 0.987688 0
    outer loop
      vertex 5 6.2 0
      vertex 5 6.2 5.5
      vertex 6.9159 5.89655 0
    endloop
  endfacet
  facet normal 0.156435 0.987688 0
    outer loop
      vertex 6.9159 5.89655 0
      vertex 5 6.2 5.5
      vertex 6.9159 5.89655 5.5
    endloop
  endfacet
  facet normal 0 1 0
    outer loop
      vertex -5 6.2 0
      vertex -5 6.2 5.5
      vertex 5 6.2 0
    endloop
  endfacet
  facet normal 0 1 0
    outer loop
      vertex -3 6.2 4.75
      vertex -5 6.2 5.5
      vertex -3 6.2 5.5
    endloop
  endfacet
  facet normal 0 1 0
    outer loop
      vertex 5 6.2 0
      vertex -5 6.2 5.5
      vertex -3 6.2 4.75
    endloop
  endfacet
  facet normal 0 1 0
    outer loop
      vertex 5 6.2 0
      vertex 3 6.2 4.75
      vertex 3 6.2 5.5
    endloop
  endfacet
  facet normal 0 1 0
    outer loop
      vertex 5 6.2 0
      vertex 3 6.2 5.5
      vertex 5 6.2 5.5
    endloop
  endfacet
  facet normal 0 1 0
    outer loop
      vertex 3 6.2 4.75
      vertex 5 6.2 0
      vertex -3 6.2 4.75
    endloop
  endfacet
  facet normal -0.156435 0.987688 0
    outer loop
      vertex -6.9159 5.89655 0
      vertex -6.9159 5.89655 5.5
      vertex -5 6.2 0
    endloop
  endfacet
  facet normal -0.156435 0.987688 0
    outer loop
      vertex -5 6.2 0
      vertex -6.9159 5.89655 5.5
      vertex -5 6.2 5.5
    endloop
  endfacet
  facet normal -0.45399 0.891007 0
    outer loop
      vertex -8.64427 5.01591 0
      vertex -8.64427 5.01591 5.5
      vertex -6.9159 5.89655 0
    endloop
  endfacet
  facet normal -0.45399 0.891007 0
    outer loop
      vertex -6.9159 5.89655 0
      vertex -8.64427 5.01591 5.5
      vertex -6.9159 5.89655 5.5
    endloop
  endfacet
  facet normal -0.707107 0.707107 0
    outer loop
      vertex -10.0159 3.64427 0
      vertex -10.0159 3.64427 5.5
      vertex -8.64427 5.01591 0
    endloop
  endfacet
  facet normal -0.707107 0.707107 0
    outer loop
      vertex -8.64427 5.01591 0
      vertex -10.0159 3.64427 5.5
      vertex -8.64427 5.01591 5.5
    endloop
  endfacet
  facet normal -0.891007 0.45399 0
    outer loop
      vertex -10.8965 1.9159 0
      vertex -10.8965 1.9159 5.5
      vertex -10.0159 3.64427 0
    endloop
  endfacet
  facet normal -0.891007 0.45399 0
    outer loop
      vertex -10.0159 3.64427 0
      vertex -10.8965 1.9159 5.5
      vertex -10.0159 3.64427 5.5
    endloop
  endfacet
  facet normal 0.900969 0.433884 0
    outer loop
      vertex -6.99785 2.44658e-016 5.5
      vertex -6.24564 -1.56198 5.5
      vertex -6.24564 -1.56198 0
    endloop
  endfacet
  facet normal 0.900969 0.433884 0
    outer loop
      vertex -6.99785 2.44658e-016 0
      vertex -6.99785 2.44658e-016 5.5
      vertex -6.24564 -1.56198 0
    endloop
  endfacet
  facet normal 0.900969 -0.433884 0
    outer loop
      vertex -6.24564 1.56198 0
      vertex -6.24564 1.56198 5.5
      vertex -6.99785 2.44658e-016 5.5
    endloop
  endfacet
  facet normal 0.900969 -0.433884 0
    outer loop
      vertex -6.99785 2.44658e-016 0
      vertex -6.24564 1.56198 0
      vertex -6.99785 2.44658e-016 5.5
    endloop
  endfacet
  facet normal 0.222521 -0.974928 0
    outer loop
      vertex -4.55544 1.94776 0
      vertex -4.55544 1.94776 5.5
      vertex -6.24564 1.56198 5.5
    endloop
  endfacet
  facet normal 0.222521 -0.974928 0
    outer loop
      vertex -6.24564 1.56198 0
      vertex -4.55544 1.94776 0
      vertex -6.24564 1.56198 5.5
    endloop
  endfacet
  facet normal -0.62349 -0.781831 0
    outer loop
      vertex -3.2 0.866834 0
      vertex -3.2 0.866834 5.5
      vertex -4.55544 1.94776 5.5
    endloop
  endfacet
  facet normal -0.62349 -0.781831 0
    outer loop
      vertex -4.55544 1.94776 0
      vertex -3.2 0.866834 0
      vertex -4.55544 1.94776 5.5
    endloop
  endfacet
  facet normal -1 1.22461e-016 0
    outer loop
      vertex -3.2 0.866834 5.5
      vertex -3.2 0.866834 0
      vertex -3.2 -0.866834 5.5
    endloop
  endfacet
  facet normal -1 1.22461e-016 0
    outer loop
      vertex -3.2 -0.866834 5.5
      vertex -3.2 0.866834 0
      vertex -3.2 -0.866834 0
    endloop
  endfacet
  facet normal -0.62349 0.781831 0
    outer loop
      vertex -3.2 -0.866834 5.5
      vertex -3.2 -0.866834 0
      vertex -4.55544 -1.94776 5.5
    endloop
  endfacet
  facet normal -0.62349 0.781831 0
    outer loop
      vertex -4.55544 -1.94776 5.5
      vertex -3.2 -0.866834 0
      vertex -4.55544 -1.94776 0
    endloop
  endfacet
  facet normal 0.222521 0.974928 0
    outer loop
      vertex -4.55544 -1.94776 5.5
      vertex -4.55544 -1.94776 0
      vertex -6.24564 -1.56198 5.5
    endloop
  endfacet
  facet normal 0.222521 0.974928 0
    outer loop
      vertex -6.24564 -1.56198 5.5
      vertex -4.55544 -1.94776 0
      vertex -6.24564 -1.56198 0
    endloop
  endfacet
  facet normal 0.900969 0.433884 0
    outer loop
      vertex 3.00215 2.44658e-016 5.5
      vertex 3.75436 -1.56198 5.5
      vertex 3.75436 -1.56198 0
    endloop
  endfacet
  facet normal 0.900969 0.433884 0
    outer loop
      vertex 3.00215 2.44658e-016 0
      vertex 3.00215 2.44658e-016 5.5
      vertex 3.75436 -1.56198 0
    endloop
  endfacet
  facet normal 0.900969 -0.433884 0
    outer loop
      vertex 3.75436 1.56198 0
      vertex 3.75436 1.56198 5.5
      vertex 3.00215 2.44658e-016 5.5
    endloop
  endfacet
  facet normal 0.900969 -0.433884 0
    outer loop
      vertex 3.00215 2.44658e-016 0
      vertex 3.75436 1.56198 0
      vertex 3.00215 2.44658e-016 5.5
    endloop
  endfacet
  facet normal 0.222521 -0.974928 0
    outer loop
      vertex 5.44456 1.94776 0
      vertex 5.44456 1.94776 5.5
      vertex 3.75436 1.56198 5.5
    endloop
  endfacet
  facet normal 0.222521 -0.974928 0
    outer loop
      vertex 3.75436 1.56198 0
      vertex 5.44456 1.94776 0
      vertex 3.75436 1.56198 5.5
    endloop
  endfacet
  facet normal -0.62349 -0.781831 0
    outer loop
      vertex 6.8 0.866834 0
      vertex 6.8 0.866834 5.5
      vertex 5.44456 1.94776 5.5
    endloop
  endfacet
  facet normal -0.62349 -0.781831 0
    outer loop
      vertex 5.44456 1.94776 0
      vertex 6.8 0.866834 0
      vertex 5.44456 1.94776 5.5
    endloop
  endfacet
  facet normal -1 1.22461e-016 0
    outer loop
      vertex 6.8 0.866834 5.5
      vertex 6.8 0.866834 0
      vertex 6.8 -0.866834 5.5
    endloop
  endfacet
  facet normal -1 1.22461e-016 0
    outer loop
      vertex 6.8 -0.866834 5.5
      vertex 6.8 0.866834 0
      vertex 6.8 -0.866834 0
    endloop
  endfacet
  facet normal -0.62349 0.781831 0
    outer loop
      vertex 6.8 -0.866834 5.5
      vertex 6.8 -0.866834 0
      vertex 5.44456 -1.94776 5.5
    endloop
  endfacet
  facet normal -0.62349 0.781831 0
    outer loop
      vertex 5.44456 -1.94776 5.5
      vertex 6.8 -0.866834 0
      vertex 5.44456 -1.94776 0
    endloop
  endfacet
  facet normal 0.222521 0.974928 0
    outer loop
      vertex 5.44456 -1.94776 5.5
      vertex 5.44456 -1.94776 0
      vertex 3.75436 -1.56198 5.5
    endloop
  endfacet
  facet normal 0.222521 0.974928 0
    outer loop
      vertex 3.75436 -1.56198 5.5
      vertex 5.44456 -1.94776 0
      vertex 3.75436 -1.56198 0
    endloop
  endfacet
  facet normal 0 0 1
    outer loop
      vertex -10.8965 1.9159 5.5
      vertex -11.2 0 5.5
      vertex -10.8965 -1.9159 5.5
    endloop
  endfacet
  facet normal 0 0 1
    outer loop
      vertex -8.64427 -5.01591 5.5
      vertex -10.8965 1.9159 5.5
      vertex -10.0159 -3.64427 5.5
    endloop
  endfacet
  facet normal 0 0 1
    outer loop
      vertex -10.0159 -3.64427 5.5
      vertex -10.8965 1.9159 5.5
      vertex -10.8965 -1.9159 5.5
    endloop
  endfacet
  facet normal 0 0 1
    outer loop
      vertex -6.9159 -5.89655 5.5
      vertex -10.8965 1.9159 5.5
      vertex -8.64427 -5.01591 5.5
    endloop
  endfacet
  facet normal 0 0 1
    outer loop
      vertex -5 -6.2 5.5
      vertex -10.8965 1.9159 5.5
      vertex -6.9159 -5.89655 5.5
    endloop
  endfacet
  facet normal 0 0 1
    outer loop
      vertex -3 -6.2 5.5
      vertex -10.8965 1.9159 5.5
      vertex -5 -6.2 5.5
    endloop
  endfacet
  facet normal 0 0 1
    outer loop
      vertex -3 -5.35 5.5
      vertex -10.8965 1.9159 5.5
      vertex -3 -6.2 5.5
    endloop
  endfacet
  facet normal 0 0 1
    outer loop
      vertex -6.24564 -1.56198 5.5
      vertex -10.8965 1.9159 5.5
      vertex -3 -5.35 5.5
    endloop
  endfacet
  facet normal 0 0 1
    outer loop
      vertex 5 -6.2 5.5
      vertex 3 -5.35 5.5
      vertex 3 -6.2 5.5
    endloop
  endfacet
  facet normal 0 0 1
    outer loop
      vertex -4.55544 1.94776 5.5
      vertex -3.2 0.866834 5.5
      vertex -3 1.35 5.5
    endloop
  endfacet
  facet normal 0 0 1
    outer loop
      vertex -3.2 0.866834 5.5
      vertex -3.2 -0.866834 5.5
      vertex -3 -0.65 5.5
    endloop
  endfacet
  facet normal 0 0 1
    outer loop
      vertex 3 4.65 5.5
      vertex 3 3.35 5.5
      vertex 8.64427 5.01591 5.5
    endloop
  endfacet
  facet normal 0 0 1
    outer loop
      vertex 3 5.35 5.5
      vertex 3 4.65 5.5
      vertex 6.9159 5.89655 5.5
    endloop
  endfacet
  facet normal 0 0 1
    outer loop
      vertex -3 -3.35 5.5
      vertex -3 -2.65 5.5
      vertex -6.24564 -1.56198 5.5
    endloop
  endfacet
  facet normal 0 0 1
    outer loop
      vertex 5 6.2 5.5
      vertex 3 5.35 5.5
      vertex 6.9159 5.89655 5.5
    endloop
  endfacet
  facet normal 0 0 1
    outer loop
      vertex -3 6.2 5.5
      vertex -10.8965 1.9159 5.5
      vertex -3 5.35 5.5
    endloop
  endfacet
  facet normal 0 0 1
    outer loop
      vertex -5 6.2 5.5
      vertex -10.8965 1.9159 5.5
      vertex -3 6.2 5.5
    endloop
  endfacet
  facet normal 0 0 1
    outer loop
      vertex -6.9159 5.89655 5.5
      vertex -10.8965 1.9159 5.5
      vertex -5 6.2 5.5
    endloop
  endfacet
  facet normal 0 0 1
    outer loop
      vertex -8.64427 5.01591 5.5
      vertex -10.8965 1.9159 5.5
      vertex -6.9159 5.89655 5.5
    endloop
  endfacet
  facet normal 0 0 1
    outer loop
      vertex -10.0159 3.64427 5.5
      vertex -10.8965 1.9159 5.5
      vertex -8.64427 5.01591 5.5
    endloop
  endfacet
  facet normal 0 0 1
    outer loop
      vertex -3 -4.65 5.5
      vertex -6.24564 -1.56198 5.5
      vertex -3 -5.35 5.5
    endloop
  endfacet
  facet normal 0 0 1
    outer loop
      vertex -3 2.65 5.5
      vertex 3 2.65 5.5
      vertex 10.0159 3.64427 5.5
    endloop
  endfacet
  facet normal 0 0 1
    outer loop
      vertex 3 -2.65 5.5
      vertex 3 -3.35 5.5
      vertex 8.64427 -5.01591 5.5
    endloop
  endfacet
  facet normal 0 0 1
    outer loop
      vertex 3.00215 2.44658e-016 5.5
      vertex 3.75436 1.56198 5.5
      vertex 3 1.35 5.5
    endloop
  endfacet
  facet normal 0 0 1
    outer loop
      vertex 3 2.65 5.5
      vertex 3 1.35 5.5
      vertex 3.75436 1.56198 5.5
    endloop
  endfacet
  facet normal 0 0 1
    outer loop
      vertex 3 0.65 5.5
      vertex 3 -0.65 5.5
      vertex 3.00215 2.44658e-016 5.5
    endloop
  endfacet
  facet normal 0 0 1
    outer loop
      vertex -3 -1.35 5.5
      vertex -3 -0.65 5.5
      vertex -3.2 -0.866834 5.5
    endloop
  endfacet
  facet normal 0 0 1
    outer loop
      vertex -3 -2.65 5.5
      vertex -4.55544 -1.94776 5.5
      vertex -6.24564 -1.56198 5.5
    endloop
  endfacet
  facet normal 0 0 1
    outer loop
      vertex -3 1.35 5.5
      vertex -3 2.65 5.5
      vertex -4.55544 1.94776 5.5
    endloop
  endfacet
  facet normal 0 0 1
    outer loop
      vertex 3 -5.35 5.5
      vertex -3 -4.65 5.5
      vertex -3 -5.35 5.5
    endloop
  endfacet
  facet normal 0 0 1
    outer loop
      vertex -3 -3.35 5.5
      vertex -6.24564 -1.56198 5.5
      vertex -3 -4.65 5.5
    endloop
  endfacet
  facet normal 0 0 1
    outer loop
      vertex 3 -3.35 5.5
      vertex 3 -4.65 5.5
      vertex 6.9159 -5.89655 5.5
    endloop
  endfacet
  facet normal 0 0 1
    outer loop
      vertex 8.64427 -5.01591 5.5
      vertex 3 -3.35 5.5
      vertex 6.9159 -5.89655 5.5
    endloop
  endfacet
  facet normal 0 0 1
    outer loop
      vertex -3 -1.35 5.5
      vertex 3 -1.35 5.5
      vertex -3 -0.65 5.5
    endloop
  endfacet
  facet normal 0 0 1
    outer loop
      vertex 6.9159 -5.89655 5.5
      vertex 3 -4.65 5.5
      vertex 5 -6.2 5.5
    endloop
  endfacet
  facet normal 0 0 1
    outer loop
      vertex 3 -2.65 5.5
      vertex -3 -2.65 5.5
      vertex 3 -3.35 5.5
    endloop
  endfacet
  facet normal 0 0 1
    outer loop
      vertex 3 -1.35 5.5
      vertex 3 -2.65 5.5
      vertex 10.0159 -3.64427 5.5
    endloop
  endfacet
  facet normal 0 0 1
    outer loop
      vertex 3 3.35 5.5
      vertex -3 3.35 5.5
      vertex -10.8965 1.9159 5.5
    endloop
  endfacet
  facet normal 0 0 1
    outer loop
      vertex 3.75436 -1.56198 5.5
      vertex 3 -1.35 5.5
      vertex 10.0159 -3.64427 5.5
    endloop
  endfacet
  facet normal 0 0 1
    outer loop
      vertex -3.2 -0.866834 5.5
      vertex -4.55544 -1.94776 5.5
      vertex -3 -1.35 5.5
    endloop
  endfacet
  facet normal 0 0 1
    outer loop
      vertex 10.0159 -3.64427 5.5
      vertex 3 -2.65 5.5
      vertex 8.64427 -5.01591 5.5
    endloop
  endfacet
  facet normal 0 0 1
    outer loop
      vertex 3 -0.65 5.5
      vertex -3 -0.65 5.5
      vertex 3 -1.35 5.5
    endloop
  endfacet
  facet normal 0 0 1
    outer loop
      vertex 3 0.65 5.5
      vertex 3 1.35 5.5
      vertex -3 1.35 5.5
    endloop
  endfacet
  facet normal 0 0 1
    outer loop
      vertex -3 1.35 5.5
      vertex -3.2 0.866834 5.5
      vertex 3 0.65 5.5
    endloop
  endfacet
  facet normal 0 0 1
    outer loop
      vertex -6.24564 1.56198 5.5
      vertex -4.55544 1.94776 5.5
      vertex -10.8965 1.9159 5.5
    endloop
  endfacet
  facet normal 0 0 1
    outer loop
      vertex -3 -3.35 5.5
      vertex 3 -3.35 5.5
      vertex -3 -2.65 5.5
    endloop
  endfacet
  facet normal 0 0 1
    outer loop
      vertex -3.2 0.866834 5.5
      vertex -3 -0.65 5.5
      vertex -3 0.65 5.5
    endloop
  endfacet
  facet normal 0 0 1
    outer loop
      vertex 3 3.35 5.5
      vertex -3 2.65 5.5
      vertex 10.0159 3.64427 5.5
    endloop
  endfacet
  facet normal 0 0 1
    outer loop
      vertex 3.75436 -1.56198 5.5
      vertex 3.00215 2.44658e-016 5.5
      vertex 3 -0.65 5.5
    endloop
  endfacet
  facet normal 0 0 1
    outer loop
      vertex 10.0159 3.64427 5.5
      vertex 3 2.65 5.5
      vertex 10.8965 1.9159 5.5
    endloop
  endfacet
  facet normal 0 0 1
    outer loop
      vertex 6.8 0.866834 5.5
      vertex 6.8 -0.866834 5.5
      vertex 11.2 0 5.5
    endloop
  endfacet
  facet normal 0 0 1
    outer loop
      vertex 6.8 -0.866834 5.5
      vertex 5.44456 -1.94776 5.5
      vertex 10.8965 -1.9159 5.5
    endloop
  endfacet
  facet normal 0 0 1
    outer loop
      vertex 3.75436 -1.56198 5.5
      vertex 3 -0.65 5.5
      vertex 3 -1.35 5.5
    endloop
  endfacet
  facet normal 0 0 1
    outer loop
      vertex -3 4.65 5.5
      vertex 3 4.65 5.5
      vertex 3 5.35 5.5
    endloop
  endfacet
  facet normal 0 0 1
    outer loop
      vertex -3 -2.65 5.5
      vertex -3 -1.35 5.5
      vertex -4.55544 -1.94776 5.5
    endloop
  endfacet
  facet normal 0 0 1
    outer loop
      vertex -3 5.35 5.5
      vertex -10.8965 1.9159 5.5
      vertex -3 4.65 5.5
    endloop
  endfacet
  facet normal 0 0 1
    outer loop
      vertex 6.9159 5.89655 5.5
      vertex 3 4.65 5.5
      vertex 8.64427 5.01591 5.5
    endloop
  endfacet
  facet normal 0 0 1
    outer loop
      vertex 8.64427 5.01591 5.5
      vertex 3 3.35 5.5
      vertex 10.0159 3.64427 5.5
    endloop
  endfacet
  facet normal 0 0 1
    outer loop
      vertex -3 3.35 5.5
      vertex -3 4.65 5.5
      vertex -10.8965 1.9159 5.5
    endloop
  endfacet
  facet normal 0 0 1
    outer loop
      vertex 5.44456 -1.94776 5.5
      vertex 3.75436 -1.56198 5.5
      vertex 10.0159 -3.64427 5.5
    endloop
  endfacet
  facet normal 0 0 1
    outer loop
      vertex 3 3.35 5.5
      vertex -10.8965 1.9159 5.5
      vertex -3 2.65 5.5
    endloop
  endfacet
  facet normal 0 0 1
    outer loop
      vertex 3 2.65 5.5
      vertex 5.44456 1.94776 5.5
      vertex 10.8965 1.9159 5.5
    endloop
  endfacet
  facet normal 0 0 1
    outer loop
      vertex 3 2.65 5.5
      vertex 3.75436 1.56198 5.5
      vertex 5.44456 1.94776 5.5
    endloop
  endfacet
  facet normal 0 0 1
    outer loop
      vertex 10.8965 1.9159 5.5
      vertex 6.8 0.866834 5.5
      vertex 11.2 0 5.5
    endloop
  endfacet
  facet normal 0 0 1
    outer loop
      vertex 5.44456 1.94776 5.5
      vertex 6.8 0.866834 5.5
      vertex 10.8965 1.9159 5.5
    endloop
  endfacet
  facet normal 0 0 1
    outer loop
      vertex 11.2 0 5.5
      vertex 6.8 -0.866834 5.5
      vertex 10.8965 -1.9159 5.5
    endloop
  endfacet
  facet normal 0 0 1
    outer loop
      vertex 10.8965 -1.9159 5.5
      vertex 5.44456 -1.94776 5.5
      vertex 10.0159 -3.64427 5.5
    endloop
  endfacet
  facet normal 0 0 1
    outer loop
      vertex 3 6.2 5.5
      vertex 3 5.35 5.5
      vertex 5 6.2 5.5
    endloop
  endfacet
  facet normal 0 0 1
    outer loop
      vertex 3 5.35 5.5
      vertex -3 5.35 5.5
      vertex -3 4.65 5.5
    endloop
  endfacet
  facet normal 0 0 1
    outer loop
      vertex -6.24564 -1.56198 5.5
      vertex -6.99785 2.44658e-016 5.5
      vertex -10.8965 1.9159 5.5
    endloop
  endfacet
  facet normal 0 0 1
    outer loop
      vertex 3.00215 2.44658e-016 5.5
      vertex 3 1.35 5.5
      vertex 3 0.65 5.5
    endloop
  endfacet
  facet normal 0 0 1
    outer loop
      vertex -4.55544 1.94776 5.5
      vertex -3 2.65 5.5
      vertex -10.8965 1.9159 5.5
    endloop
  endfacet
  facet normal 0 0 1
    outer loop
      vertex -3 0.65 5.5
      vertex 3 0.65 5.5
      vertex -3.2 0.866834 5.5
    endloop
  endfacet
  facet normal 0 0 1
    outer loop
      vertex 3 -4.65 5.5
      vertex -3 -4.65 5.5
      vertex 3 -5.35 5.5
    endloop
  endfacet
  facet normal 0 0 1
    outer loop
      vertex 3 -4.65 5.5
      vertex 3 -5.35 5.5
      vertex 5 -6.2 5.5
    endloop
  endfacet
  facet normal 0 0 1
    outer loop
      vertex -6.99785 2.44658e-016 5.5
      vertex -6.24564 1.56198 5.5
      vertex -10.8965 1.9159 5.5
    endloop
  endfacet
  facet normal 1 0 0
    outer loop
      vertex -3 -5.35 4.75
      vertex -3 -5.35 5.5
      vertex -3 -6.2 5.5
    endloop
  endfacet
  facet normal 1 0 0
    outer loop
      vertex -3 -6.2 4.75
      vertex -3 -5.35 4.75
      vertex -3 -6.2 5.5
    endloop
  endfacet
  facet normal 0 0 1
    outer loop
      vertex 3 -6.2 4.75
      vertex 3 -5.35 4.75
      vertex -3 -5.35 4.75
    endloop
  endfacet
  facet normal 0 0 1
    outer loop
      vertex -3 -6.2 4.75
      vertex 3 -6.2 4.75
      vertex -3 -5.35 4.75
    endloop
  endfacet
  facet normal -1 0 0
    outer loop
      vertex 3 -5.35 5.5
      vertex 3 -5.35 4.75
      vertex 3 -6.2 5.5
    endloop
  endfacet
  facet normal -1 0 0
    outer loop
      vertex 3 -6.2 5.5
      vertex 3 -5.35 4.75
      vertex 3 -6.2 4.75
    endloop
  endfacet
  facet normal -1 0 0
    outer loop
      vertex 3 6.2 5.5
      vertex 3 6.2 4.75
      vertex 3 5.35 5.5
    endloop
  endfacet
  facet normal -1 0 0
    outer loop
      vertex 3 5.35 5.5
      vertex 3 6.2 4.75
      vertex 3 5.35 4.75
    endloop
  endfacet
  facet normal 0 0 1
    outer loop
      vertex 3 5.35 4.75
      vertex 3 6.2 4.75
      vertex -3 6.2 4.75
    endloop
  endfacet
  facet normal 0 0 1
    outer loop
      vertex -3 5.35 4.75
      vertex 3 5.35 4.75
      vertex -3 6.2 4.75
    endloop
  endfacet
  facet normal 1 0 0
    outer loop
      vertex -3 6.2 4.75
      vertex -3 6.2 5.5
      vertex -3 5.35 5.5
    endloop
  endfacet
  facet normal 1 0 0
    outer loop
      vertex -3 5.35 4.75
      vertex -3 6.2 4.75
      vertex -3 5.35 5.5
    endloop
  endfacet
  facet normal 0 1 0
    outer loop
      vertex 3 5.35 5.5
      vertex 3 5.35 4.75
      vertex -3 5.35 5.5
    endloop
  endfacet
  facet normal 0 1 0
    outer loop
      vertex -3 5.35 5.5
      vertex 3 5.35 4.75
      vertex -3 5.35 4.75
    endloop
  endfacet
  facet normal 0 -1 0
    outer loop
      vertex 3 -5.35 4.75
      vertex 3 -5.35 5.5
      vertex -3 -5.35 5.5
    endloop
  endfacet
  facet normal 0 -1 0
    outer loop
      vertex -3 -5.35 4.75
      vertex 3 -5.35 4.75
      vertex -3 -5.35 5.5
    endloop
  endfacet
  facet normal 1 0 0
    outer loop
      vertex -3 -3.35 4.75
      vertex -3 -3.35 5.5
      vertex -3 -4.65 5.5
    endloop
  endfacet
  facet normal 1 0 0
    outer loop
      vertex -3 -4.65 4.75
      vertex -3 -3.35 4.75
      vertex -3 -4.65 5.5
    endloop
  endfacet
  facet normal 0 1 0
    outer loop
      vertex 3 -4.65 5.5
      vertex 3 -4.65 4.75
      vertex -3 -4.65 5.5
    endloop
  endfacet
  facet normal 0 1 0
    outer loop
      vertex -3 -4.65 5.5
      vertex 3 -4.65 4.75
      vertex -3 -4.65 4.75
    endloop
  endfacet
  facet normal -1 0 0
    outer loop
      vertex 3 -3.35 5.5
      vertex 3 -3.35 4.75
      vertex 3 -4.65 5.5
    endloop
  endfacet
  facet normal -1 0 0
    outer loop
      vertex 3 -4.65 5.5
      vertex 3 -3.35 4.75
      vertex 3 -4.65 4.75
    endloop
  endfacet
  facet normal 0 -1 0
    outer loop
      vertex 3 -3.35 4.75
      vertex 3 -3.35 5.5
      vertex -3 -3.35 5.5
    endloop
  endfacet
  facet normal 0 -1 0
    outer loop
      vertex -3 -3.35 4.75
      vertex 3 -3.35 4.75
      vertex -3 -3.35 5.5
    endloop
  endfacet
  facet normal 1 0 0
    outer loop
      vertex -3 -1.35 4.75
      vertex -3 -1.35 5.5
      vertex -3 -2.65 5.5
    endloop
  endfacet
  facet normal 1 0 0
    outer loop
      vertex -3 -2.65 4.75
      vertex -3 -1.35 4.75
      vertex -3 -2.65 5.5
    endloop
  endfacet
  facet normal 0 1 0
    outer loop
      vertex 3 -2.65 5.5
      vertex 3 -2.65 4.75
      vertex -3 -2.65 5.5
    endloop
  endfacet
  facet normal 0 1 0
    outer loop
      vertex -3 -2.65 5.5
      vertex 3 -2.65 4.75
      vertex -3 -2.65 4.75
    endloop
  endfacet
  facet normal -1 0 0
    outer loop
      vertex 3 -1.35 5.5
      vertex 3 -1.35 4.75
      vertex 3 -2.65 5.5
    endloop
  endfacet
  facet normal -1 0 0
    outer loop
      vertex 3 -2.65 5.5
      vertex 3 -1.35 4.75
      vertex 3 -2.65 4.75
    endloop
  endfacet
  facet normal 0 -1 0
    outer loop
      vertex 3 -1.35 4.75
      vertex 3 -1.35 5.5
      vertex -3 -1.35 5.5
    endloop
  endfacet
  facet normal 0 -1 0
    outer loop
      vertex -3 -1.35 4.75
      vertex 3 -1.35 4.75
      vertex -3 -1.35 5.5
    endloop
  endfacet
  facet normal 1 0 0
    outer loop
      vertex -3 0.65 4.75
      vertex -3 0.65 5.5
      vertex -3 -0.65 5.5
    endloop
  endfacet
  facet normal 1 0 0
    outer loop
      vertex -3 -0.65 4.75
      vertex -3 0.65 4.75
      vertex -3 -0.65 5.5
    endloop
  endfacet
  facet normal 0 1 0
    outer loop
      vertex 3 -0.65 5.5
      vertex 3 -0.65 4.75
      vertex -3 -0.65 5.5
    endloop
  endfacet
  facet normal 0 1 0
    outer loop
      vertex -3 -0.65 5.5
      vertex 3 -0.65 4.75
      vertex -3 -0.65 4.75
    endloop
  endfacet
  facet normal -1 0 0
    outer loop
      vertex 3 0.65 5.5
      vertex 3 0.65 4.75
      vertex 3 -0.65 5.5
    endloop
  endfacet
  facet normal -1 0 0
    outer loop
      vertex 3 -0.65 5.5
      vertex 3 0.65 4.75
      vertex 3 -0.65 4.75
    endloop
  endfacet
  facet normal 0 -1 0
    outer loop
      vertex 3 0.65 4.75
      vertex 3 0.65 5.5
      vertex -3 0.65 5.5
    endloop
  endfacet
  facet normal 0 -1 0
    outer loop
      vertex -3 0.65 4.75
      vertex 3 0.65 4.75
      vertex -3 0.65 5.5
    endloop
  endfacet
  facet normal 1 0 0
    outer loop
      vertex -3 2.65 4.75
      vertex -3 2.65 5.5
      vertex -3 1.35 5.5
    endloop
  endfacet
  facet normal 1 0 0
    outer loop
      vertex -3 1.35 4.75
      vertex -3 2.65 4.75
      vertex -3 1.35 5.5
    endloop
  endfacet
  facet normal 0 1 0
    outer loop
      vertex 3 1.35 5.5
      vertex 3 1.35 4.75
      vertex -3 1.35 5.5
    endloop
  endfacet
  facet normal 0 1 0
    outer loop
      vertex -3 1.35 5.5
      vertex 3 1.35 4.75
      vertex -3 1.35 4.75
    endloop
  endfacet
  facet normal -1 0 0
    outer loop
      vertex 3 2.65 5.5
      vertex 3 2.65 4.75
      vertex 3 1.35 5.5
    endloop
  endfacet
  facet normal -1 0 0
    outer loop
      vertex 3 1.35 5.5
      vertex 3 2.65 4.75
      vertex 3 1.35 4.75
    endloop
  endfacet
  facet normal 0 -1 0
    outer loop
      vertex 3 2.65 4.75
      vertex 3 2.65 5.5
      vertex -3 2.65 5.5
    endloop
  endfacet
  facet normal 0 -1 0
    outer loop
      vertex -3 2.65 4.75
      vertex 3 2.65 4.75
      vertex -3 2.65 5.5
    endloop
  endfacet
  facet normal 1 0 0
    outer loop
      vertex -3 4.65 4.75
      vertex -3 4.65 5.5
      vertex -3 3.35 5.5
    endloop
  endfacet
  facet normal 1 0 0
    outer loop
      vertex -3 3.35 4.75
      vertex -3 4.65 4.75
      vertex -3 3.35 5.5
    endloop
  endfacet
  facet normal 0 1 0
    outer loop
      vertex 3 3.35 5.5
      vertex 3 3.35 4.75
      vertex -3 3.35 5.5
    endloop
  endfacet
  facet normal 0 1 0
    outer loop
      vertex -3 3.35 5.5
      vertex 3 3.35 4.75
      vertex -3 3.35 4.75
    endloop
  endfacet
  facet normal -1 0 0
    outer loop
      vertex 3 4.65 5.5
      vertex 3 4.65 4.75
      vertex 3 3.35 5.5
    endloop
  endfacet
  facet normal -1 0 0
    outer loop
      vertex 3 3.35 5.5
      vertex 3 4.65 4.75
      vertex 3 3.35 4.75
    endloop
  endfacet
  facet normal 0 -1 0
    outer loop
      vertex 3 4.65 4.75
      vertex 3 4.65 5.5
      vertex -3 4.65 5.5
    endloop
  endfacet
  facet normal 0 -1 0
    outer loop
      vertex -3 4.65 4.75
      vertex 3 4.65 4.75
      vertex -3 4.65 5.5
    endloop
  endfacet
  facet normal 0 0 1
    outer loop
      vertex 3 -4.65 4.75
      vertex 3 -3.35 4.75
      vertex -3 -3.35 4.75
    endloop
  endfacet
  facet normal 0 0 1
    outer loop
      vertex -3 -4.65 4.75
      vertex 3 -4.65 4.75
      vertex -3 -3.35 4.75
    endloop
  endfacet
  facet normal 0 0 1
    outer loop
      vertex 3 -2.65 4.75
      vertex 3 -1.35 4.75
      vertex -3 -1.35 4.75
    endloop
  endfacet
  facet normal 0 0 1
    outer loop
      vertex -3 -2.65 4.75
      vertex 3 -2.65 4.75
      vertex -3 -1.35 4.75
    endloop
  endfacet
  facet normal 0 0 1
    outer loop
      vertex 3 -0.65 4.75
      vertex 3 0.65 4.75
      vertex -3 0.65 4.75
    endloop
  endfacet
  facet normal 0 0 1
    outer loop
      vertex -3 -0.65 4.75
      vertex 3 -0.65 4.75
      vertex -3 0.65 4.75
    endloop
  endfacet
  facet normal 0 0 1
    outer loop
      vertex 3 1.35 4.75
      vertex 3 2.65 4.75
      vertex -3 2.65 4.75
    endloop
  endfacet
  facet normal 0 0 1
    outer loop
      vertex -3 1.35 4.75
      vertex 3 1.35 4.75
      vertex -3 2.65 4.75
    endloop
  endfacet
  facet normal 0 0 1
    outer loop
      vertex 3 3.35 4.75
      vertex 3 4.65 4.75
      vertex -3 4.65 4.75
    endloop
  endfacet
  facet normal 0 0 1
    outer loop
      vertex -3 3.35 4.75
      vertex 3 3.35 4.75
      vertex -3 4.65 4.75
    endloop
  endfacet
endsolid OpenSCAD_Model
