solid OpenSCAD_Model
  facet normal -0 0 -1
    outer loop
      vertex -6 0 0
      vertex -5.90885 1.04189 0
      vertex -5.90885 -1.04189 0
    endloop
  endfacet
  facet normal 0 -0 -1
    outer loop
      vertex -5.90885 -1.04189 0
      vertex -5.90885 1.04189 0
      vertex -5.63816 2.05212 0
    endloop
  endfacet
  facet normal 0 0 -1
    outer loop
      vertex -5.90885 -1.04189 0
      vertex -5.63816 2.05212 0
      vertex -5.19615 3 0
    endloop
  endfacet
  facet normal 0 0 -1
    outer loop
      vertex -5.90885 -1.04189 0
      vertex -5.19615 3 0
      vertex -4.59627 3.85673 0
    endloop
  endfacet
  facet normal 0 0 -1
    outer loop
      vertex -5.90885 -1.04189 0
      vertex -4.59627 3.85673 0
      vertex -3.85673 4.59627 0
    endloop
  endfacet
  facet normal 0 0 -1
    outer loop
      vertex -5.90885 -1.04189 0
      vertex -3.85673 4.59627 0
      vertex -3 5.19615 0
    endloop
  endfacet
  facet normal 0 0 -1
    outer loop
      vertex -5.90885 -1.04189 0
      vertex -3 5.19615 0
      vertex -2.05212 5.63816 0
    endloop
  endfacet
  facet normal 0 0 -1
    outer loop
      vertex -5.90885 -1.04189 0
      vertex -2.05212 5.63816 0
      vertex -1.04189 5.90885 0
    endloop
  endfacet
  facet normal 0 0 -1
    outer loop
      vertex -5.90885 -1.04189 0
      vertex -1.04189 5.90885 0
      vertex 0 6 0
    endloop
  endfacet
  facet normal 0 0 -1
    outer loop
      vertex -5.90885 -1.04189 0
      vertex 0 6 0
      vertex 1.04189 5.90885 0
    endloop
  endfacet
  facet normal 0 0 -1
    outer loop
      vertex -5.90885 -1.04189 0
      vertex 1.04189 5.90885 0
      vertex 2.05212 5.63816 0
    endloop
  endfacet
  facet normal 0 0 -1
    outer loop
      vertex -5.90885 -1.04189 0
      vertex 2.05212 5.63816 0
      vertex 3 5.19615 0
    endloop
  endfacet
  facet normal 0 0 -1
    outer loop
      vertex -5.90885 -1.04189 0
      vertex 3 5.19615 0
      vertex 3.85673 4.59627 0
    endloop
  endfacet
  facet normal 0 0 -1
    outer loop
      vertex -0.547232 1.50351 0
      vertex 3.85673 4.59627 0
      vertex 4.59627 3.85673 0
    endloop
  endfacet
  facet normal 0 0 -1
    outer loop
      vertex 0.547232 1.50351 0
      vertex 4.59627 3.85673 0
      vertex 5.19615 3 0
    endloop
  endfacet
  facet normal 0 0 -1
    outer loop
      vertex 1.22567 1.02846 0
      vertex 5.19615 3 0
      vertex 5.63816 2.05212 0
    endloop
  endfacet
  facet normal 0 0 -1
    outer loop
      vertex 1.50351 0.547232 0
      vertex 5.63816 2.05212 0
      vertex 5.90885 1.04189 0
    endloop
  endfacet
  facet normal -0 0 -1
    outer loop
      vertex 1.6 0 0
      vertex 5.90885 1.04189 0
      vertex 6 0 0
    endloop
  endfacet
  facet normal -0 0 -1
    outer loop
      vertex 1.38564 -0.8 0
      vertex 6 0 0
      vertex 5.90885 -1.04189 0
    endloop
  endfacet
  facet normal -0 0 -1
    outer loop
      vertex 0.8 -1.38564 0
      vertex 5.90885 -1.04189 0
      vertex 5.63816 -2.05212 0
    endloop
  endfacet
  facet normal 0 0 -1
    outer loop
      vertex 0 -1.6 0
      vertex 5.63816 -2.05212 0
      vertex 5.19615 -3 0
    endloop
  endfacet
  facet normal 0 0 -1
    outer loop
      vertex -5.90885 -1.04189 0
      vertex 5.19615 -3 0
      vertex 4.59627 -3.85673 0
    endloop
  endfacet
  facet normal 0 0 -1
    outer loop
      vertex -5.90885 -1.04189 0
      vertex 4.59627 -3.85673 0
      vertex 3.85673 -4.59627 0
    endloop
  endfacet
  facet normal 0 0 -1
    outer loop
      vertex -5.90885 -1.04189 0
      vertex 3.85673 -4.59627 0
      vertex 3 -5.19615 0
    endloop
  endfacet
  facet normal 0 0 -1
    outer loop
      vertex -5.90885 -1.04189 0
      vertex 3 -5.19615 0
      vertex 2.05212 -5.63816 0
    endloop
  endfacet
  facet normal 0 0 -1
    outer loop
      vertex -5.90885 -1.04189 0
      vertex 2.05212 -5.63816 0
      vertex 1.04189 -5.90885 0
    endloop
  endfacet
  facet normal 0 0 -1
    outer loop
      vertex -5.90885 -1.04189 0
      vertex 1.04189 -5.90885 0
      vertex 0 -6 0
    endloop
  endfacet
  facet normal 0 0 -1
    outer loop
      vertex -5.90885 -1.04189 0
      vertex 0 -6 0
      vertex -1.04189 -5.90885 0
    endloop
  endfacet
  facet normal 0 0 -1
    outer loop
      vertex -5.90885 -1.04189 0
      vertex -1.04189 -5.90885 0
      vertex -2.05212 -5.63816 0
    endloop
  endfacet
  facet normal 0 0 -1
    outer loop
      vertex -5.90885 -1.04189 0
      vertex -2.05212 -5.63816 0
      vertex -3 -5.19615 0
    endloop
  endfacet
  facet normal 0 0 -1
    outer loop
      vertex -5.90885 -1.04189 0
      vertex -3 -5.19615 0
      vertex -3.85673 -4.59627 0
    endloop
  endfacet
  facet normal 0 0 -1
    outer loop
      vertex -5.90885 -1.04189 0
      vertex -3.85673 -4.59627 0
      vertex -4.59627 -3.85673 0
    endloop
  endfacet
  facet normal 0 0 -1
    outer loop
      vertex -5.90885 -1.04189 0
      vertex -4.59627 -3.85673 0
      vertex -5.19615 -3 0
    endloop
  endfacet
  facet normal 0 0 -1
    outer loop
      vertex -5.90885 -1.04189 0
      vertex -5.19615 -3 0
      vertex -5.63816 -2.05212 0
    endloop
  endfacet
  facet normal 0 0 -1
    outer loop
      vertex -1.57569 -0.277837 0
      vertex -5.90885 -1.04189 0
      vertex -1.6 0 0
    endloop
  endfacet
  facet normal 0 0 -1
    outer loop
      vertex -1.38564 -0.8 0
      vertex -5.90885 -1.04189 0
      vertex -1.50351 -0.547232 0
    endloop
  endfacet
  facet normal 0 0 -1
    outer loop
      vertex -5.90885 -1.04189 0
      vertex -1.57569 -0.277837 0
      vertex -1.50351 -0.547232 0
    endloop
  endfacet
  facet normal 0 0 -1
    outer loop
      vertex -1.02846 -1.22567 0
      vertex -5.90885 -1.04189 0
      vertex -1.22567 -1.02846 0
    endloop
  endfacet
  facet normal 0 0 -1
    outer loop
      vertex -5.90885 -1.04189 0
      vertex -1.38564 -0.8 0
      vertex -1.22567 -1.02846 0
    endloop
  endfacet
  facet normal 0 0 -1
    outer loop
      vertex -0.277837 -1.57569 0
      vertex -5.90885 -1.04189 0
      vertex -0.547232 -1.50351 0
    endloop
  endfacet
  facet normal 0 0 -1
    outer loop
      vertex -5.90885 -1.04189 0
      vertex -1.02846 -1.22567 0
      vertex -0.8 -1.38564 0
    endloop
  endfacet
  facet normal 0 0 -1
    outer loop
      vertex -5.90885 -1.04189 0
      vertex -0.8 -1.38564 0
      vertex -0.547232 -1.50351 0
    endloop
  endfacet
  facet normal 0 0 -1
    outer loop
      vertex 0.277837 -1.57569 0
      vertex 5.63816 -2.05212 0
      vertex 0 -1.6 0
    endloop
  endfacet
  facet normal 0 0 -1
    outer loop
      vertex -5.90885 -1.04189 0
      vertex -0.277837 -1.57569 0
      vertex 5.19615 -3 0
    endloop
  endfacet
  facet normal 0 0 -1
    outer loop
      vertex -0.277837 -1.57569 0
      vertex 0 -1.6 0
      vertex 5.19615 -3 0
    endloop
  endfacet
  facet normal 0 0 -1
    outer loop
      vertex 0.547232 -1.50351 0
      vertex 5.63816 -2.05212 0
      vertex 0.277837 -1.57569 0
    endloop
  endfacet
  facet normal 0 0 -1
    outer loop
      vertex 0.8 -1.38564 0
      vertex 5.63816 -2.05212 0
      vertex 0.547232 -1.50351 0
    endloop
  endfacet
  facet normal -0 0 -1
    outer loop
      vertex 1.02846 -1.22567 0
      vertex 5.90885 -1.04189 0
      vertex 0.8 -1.38564 0
    endloop
  endfacet
  facet normal 0 0 -1
    outer loop
      vertex 1.22567 -1.02846 0
      vertex 5.90885 -1.04189 0
      vertex 1.02846 -1.22567 0
    endloop
  endfacet
  facet normal 0 0 -1
    outer loop
      vertex 1.38564 -0.8 0
      vertex 5.90885 -1.04189 0
      vertex 1.22567 -1.02846 0
    endloop
  endfacet
  facet normal -0 0 -1
    outer loop
      vertex 1.50351 -0.547232 0
      vertex 6 0 0
      vertex 1.38564 -0.8 0
    endloop
  endfacet
  facet normal -0 0 -1
    outer loop
      vertex 1.57569 -0.277837 0
      vertex 6 0 0
      vertex 1.50351 -0.547232 0
    endloop
  endfacet
  facet normal 0 0 -1
    outer loop
      vertex 1.6 0 0
      vertex 6 0 0
      vertex 1.57569 -0.277837 0
    endloop
  endfacet
  facet normal -0 0 -1
    outer loop
      vertex 1.57569 0.277837 0
      vertex 5.90885 1.04189 0
      vertex 1.6 0 0
    endloop
  endfacet
  facet normal -0 0 -1
    outer loop
      vertex 1.38564 0.8 0
      vertex 5.63816 2.05212 0
      vertex 1.50351 0.547232 0
    endloop
  endfacet
  facet normal -0 0 -1
    outer loop
      vertex 1.22567 1.02846 0
      vertex 5.63816 2.05212 0
      vertex 1.38564 0.8 0
    endloop
  endfacet
  facet normal -0 0 -1
    outer loop
      vertex 1.02846 1.22567 0
      vertex 5.19615 3 0
      vertex 1.22567 1.02846 0
    endloop
  endfacet
  facet normal -0 0 -1
    outer loop
      vertex 1.50351 0.547232 0
      vertex 5.90885 1.04189 0
      vertex 1.57569 0.277837 0
    endloop
  endfacet
  facet normal -0 0 -1
    outer loop
      vertex 0.8 1.38564 0
      vertex 5.19615 3 0
      vertex 1.02846 1.22567 0
    endloop
  endfacet
  facet normal -0 0 -1
    outer loop
      vertex 0.277837 1.57569 0
      vertex 4.59627 3.85673 0
      vertex 0.547232 1.50351 0
    endloop
  endfacet
  facet normal 0 0 -1
    outer loop
      vertex -0.547232 1.50351 0
      vertex 4.59627 3.85673 0
      vertex -0.277837 1.57569 0
    endloop
  endfacet
  facet normal -0 0 -1
    outer loop
      vertex 0 1.6 0
      vertex 4.59627 3.85673 0
      vertex 0.277837 1.57569 0
    endloop
  endfacet
  facet normal 0 0 -1
    outer loop
      vertex -0.277837 1.57569 0
      vertex 4.59627 3.85673 0
      vertex 0 1.6 0
    endloop
  endfacet
  facet normal 0 0 -1
    outer loop
      vertex -0.8 1.38564 0
      vertex 3.85673 4.59627 0
      vertex -0.547232 1.50351 0
    endloop
  endfacet
  facet normal 0 -0 -1
    outer loop
      vertex -1.02846 1.22567 0
      vertex -5.90885 -1.04189 0
      vertex -0.8 1.38564 0
    endloop
  endfacet
  facet normal 0 0 -1
    outer loop
      vertex -5.90885 -1.04189 0
      vertex 3.85673 4.59627 0
      vertex -0.8 1.38564 0
    endloop
  endfacet
  facet normal 0 -0 -1
    outer loop
      vertex -1.22567 1.02846 0
      vertex -5.90885 -1.04189 0
      vertex -1.02846 1.22567 0
    endloop
  endfacet
  facet normal 0 -0 -1
    outer loop
      vertex -1.38564 0.8 0
      vertex -5.90885 -1.04189 0
      vertex -1.22567 1.02846 0
    endloop
  endfacet
  facet normal 0 -0 -1
    outer loop
      vertex -1.50351 0.547232 0
      vertex -5.90885 -1.04189 0
      vertex -1.38564 0.8 0
    endloop
  endfacet
  facet normal 0 -0 -1
    outer loop
      vertex -1.57569 0.277837 0
      vertex -5.90885 -1.04189 0
      vertex -1.50351 0.547232 0
    endloop
  endfacet
  facet normal 0 -0 -1
    outer loop
      vertex -1.6 0 0
      vertex -5.90885 -1.04189 0
      vertex -1.57569 0.277837 0
    endloop
  endfacet
  facet normal -0 0 -1
    outer loop
      vertex 0.547232 1.50351 0
      vertex 5.19615 3 0
      vertex 0.8 1.38564 0
    endloop
  endfacet
  facet normal -0.996195 0.0871553 0
    outer loop
      vertex -6 0 0
      vertex -6 0 27
      vertex -5.90885 1.04189 0
    endloop
  endfacet
  facet normal -0.996195 0.0871553 0
    outer loop
      vertex -5.90885 1.04189 0
      vertex -6 0 27
      vertex -5.90885 1.04189 27
    endloop
  endfacet
  facet normal -0.996195 -0.0871553 -0
    outer loop
      vertex -6 0 0
      vertex -5.90885 -1.04189 0
      vertex -6 0 27
    endloop
  endfacet
  facet normal -0.996195 -0.0871553 0
    outer loop
      vertex -6 0 27
      vertex -5.90885 -1.04189 0
      vertex -5.90885 -1.04189 27
    endloop
  endfacet
  facet normal -0.965926 -0.258819 -0
    outer loop
      vertex -5.90885 -1.04189 0
      vertex -5.63816 -2.05212 0
      vertex -5.90885 -1.04189 27
    endloop
  endfacet
  facet normal -0.965926 -0.258819 0
    outer loop
      vertex -5.90885 -1.04189 27
      vertex -5.63816 -2.05212 0
      vertex -5.63816 -2.05212 27
    endloop
  endfacet
  facet normal -0.906308 -0.422619 -0
    outer loop
      vertex -5.63816 -2.05212 0
      vertex -5.19615 -3 0
      vertex -5.63816 -2.05212 27
    endloop
  endfacet
  facet normal -0.906308 -0.422619 0
    outer loop
      vertex -5.63816 -2.05212 27
      vertex -5.19615 -3 0
      vertex -5.19615 -3 27
    endloop
  endfacet
  facet normal -0.819152 -0.573576 -0
    outer loop
      vertex -5.19615 -3 0
      vertex -4.59627 -3.85673 0
      vertex -5.19615 -3 27
    endloop
  endfacet
  facet normal -0.819152 -0.573576 0
    outer loop
      vertex -5.19615 -3 27
      vertex -4.59627 -3.85673 0
      vertex -4.59627 -3.85673 27
    endloop
  endfacet
  facet normal -0.707107 -0.707107 0
    outer loop
      vertex -4.59627 -3.85673 27
      vertex -4.59627 -3.85673 0
      vertex -3.85673 -4.59627 0
    endloop
  endfacet
  facet normal -0.707107 -0.707107 0
    outer loop
      vertex -3.85673 -4.59627 27
      vertex -4.59627 -3.85673 27
      vertex -3.85673 -4.59627 0
    endloop
  endfacet
  facet normal -0.573576 -0.819152 0
    outer loop
      vertex -3.85673 -4.59627 27
      vertex -3.85673 -4.59627 0
      vertex -3 -5.19615 0
    endloop
  endfacet
  facet normal -0.573576 -0.819152 0
    outer loop
      vertex -3 -5.19615 27
      vertex -3.85673 -4.59627 27
      vertex -3 -5.19615 0
    endloop
  endfacet
  facet normal -0.422619 -0.906308 0
    outer loop
      vertex -3 -5.19615 27
      vertex -3 -5.19615 0
      vertex -2.05212 -5.63816 0
    endloop
  endfacet
  facet normal -0.422619 -0.906308 0
    outer loop
      vertex -2.05212 -5.63816 27
      vertex -3 -5.19615 27
      vertex -2.05212 -5.63816 0
    endloop
  endfacet
  facet normal -0.258819 -0.965926 0
    outer loop
      vertex -2.05212 -5.63816 27
      vertex -2.05212 -5.63816 0
      vertex -1.04189 -5.90885 0
    endloop
  endfacet
  facet normal -0.258819 -0.965926 0
    outer loop
      vertex -1.04189 -5.90885 27
      vertex -2.05212 -5.63816 27
      vertex -1.04189 -5.90885 0
    endloop
  endfacet
  facet normal -0.0871553 -0.996195 0
    outer loop
      vertex -1.04189 -5.90885 27
      vertex -1.04189 -5.90885 0
      vertex 0 -6 0
    endloop
  endfacet
  facet normal -0.0871553 -0.996195 0
    outer loop
      vertex 0 -6 27
      vertex -1.04189 -5.90885 27
      vertex 0 -6 0
    endloop
  endfacet
  facet normal 0.0871553 -0.996195 0
    outer loop
      vertex 0 -6 27
      vertex 0 -6 0
      vertex 1.04189 -5.90885 0
    endloop
  endfacet
  facet normal 0.0871553 -0.996195 0
    outer loop
      vertex 1.04189 -5.90885 27
      vertex 0 -6 27
      vertex 1.04189 -5.90885 0
    endloop
  endfacet
  facet normal 0.258819 -0.965926 0
    outer loop
      vertex 1.04189 -5.90885 27
      vertex 1.04189 -5.90885 0
      vertex 2.05212 -5.63816 0
    endloop
  endfacet
  facet normal 0.258819 -0.965926 0
    outer loop
      vertex 2.05212 -5.63816 27
      vertex 1.04189 -5.90885 27
      vertex 2.05212 -5.63816 0
    endloop
  endfacet
  facet normal 0.422619 -0.906308 0
    outer loop
      vertex 2.05212 -5.63816 27
      vertex 2.05212 -5.63816 0
      vertex 3 -5.19615 0
    endloop
  endfacet
  facet normal 0.422619 -0.906308 0
    outer loop
      vertex 3 -5.19615 27
      vertex 2.05212 -5.63816 27
      vertex 3 -5.19615 0
    endloop
  endfacet
  facet normal 0.573576 -0.819152 0
    outer loop
      vertex 3 -5.19615 27
      vertex 3 -5.19615 0
      vertex 3.85673 -4.59627 0
    endloop
  endfacet
  facet normal 0.573576 -0.819152 0
    outer loop
      vertex 3.85673 -4.59627 27
      vertex 3 -5.19615 27
      vertex 3.85673 -4.59627 0
    endloop
  endfacet
  facet normal 0.707107 -0.707107 0
    outer loop
      vertex 3.85673 -4.59627 27
      vertex 3.85673 -4.59627 0
      vertex 4.59627 -3.85673 0
    endloop
  endfacet
  facet normal 0.707107 -0.707107 0
    outer loop
      vertex 4.59627 -3.85673 27
      vertex 3.85673 -4.59627 27
      vertex 4.59627 -3.85673 0
    endloop
  endfacet
  facet normal 0.819152 -0.573576 0
    outer loop
      vertex 4.59627 -3.85673 27
      vertex 4.59627 -3.85673 0
      vertex 5.19615 -3 0
    endloop
  endfacet
  facet normal 0.819152 -0.573576 0
    outer loop
      vertex 5.19615 -3 27
      vertex 4.59627 -3.85673 27
      vertex 5.19615 -3 0
    endloop
  endfacet
  facet normal 0.906308 -0.422619 0
    outer loop
      vertex 5.19615 -3 27
      vertex 5.19615 -3 0
      vertex 5.63816 -2.05212 0
    endloop
  endfacet
  facet normal 0.906308 -0.422619 0
    outer loop
      vertex 5.63816 -2.05212 27
      vertex 5.19615 -3 27
      vertex 5.63816 -2.05212 0
    endloop
  endfacet
  facet normal 0.965926 -0.258819 0
    outer loop
      vertex 5.63816 -2.05212 27
      vertex 5.63816 -2.05212 0
      vertex 5.90885 -1.04189 0
    endloop
  endfacet
  facet normal 0.965926 -0.258819 0
    outer loop
      vertex 5.90885 -1.04189 27
      vertex 5.63816 -2.05212 27
      vertex 5.90885 -1.04189 0
    endloop
  endfacet
  facet normal 0.996195 -0.0871553 0
    outer loop
      vertex 5.90885 -1.04189 27
      vertex 5.90885 -1.04189 0
      vertex 6 0 0
    endloop
  endfacet
  facet normal 0.996195 -0.0871553 0
    outer loop
      vertex 6 0 27
      vertex 5.90885 -1.04189 27
      vertex 6 0 0
    endloop
  endfacet
  facet normal 0.996195 0.0871553 0
    outer loop
      vertex 6 0 0
      vertex 5.90885 1.04189 0
      vertex 5.90885 1.04189 27
    endloop
  endfacet
  facet normal 0.996195 0.0871553 -0
    outer loop
      vertex 6 0 27
      vertex 6 0 0
      vertex 5.90885 1.04189 27
    endloop
  endfacet
  facet normal 0.965926 0.258819 0
    outer loop
      vertex 5.90885 1.04189 0
      vertex 5.63816 2.05212 0
      vertex 5.63816 2.05212 27
    endloop
  endfacet
  facet normal 0.965926 0.258819 -0
    outer loop
      vertex 5.90885 1.04189 27
      vertex 5.90885 1.04189 0
      vertex 5.63816 2.05212 27
    endloop
  endfacet
  facet normal 0.906308 0.422619 0
    outer loop
      vertex 5.63816 2.05212 0
      vertex 5.19615 3 0
      vertex 5.19615 3 27
    endloop
  endfacet
  facet normal 0.906308 0.422619 -0
    outer loop
      vertex 5.63816 2.05212 27
      vertex 5.63816 2.05212 0
      vertex 5.19615 3 27
    endloop
  endfacet
  facet normal 0.819152 0.573576 0
    outer loop
      vertex 5.19615 3 0
      vertex 4.59627 3.85673 0
      vertex 4.59627 3.85673 27
    endloop
  endfacet
  facet normal 0.819152 0.573576 -0
    outer loop
      vertex 5.19615 3 27
      vertex 5.19615 3 0
      vertex 4.59627 3.85673 27
    endloop
  endfacet
  facet normal 0.707107 0.707107 0
    outer loop
      vertex 3.85673 4.59627 0
      vertex 3.85673 4.59627 27
      vertex 4.59627 3.85673 0
    endloop
  endfacet
  facet normal 0.707107 0.707107 0
    outer loop
      vertex 4.59627 3.85673 0
      vertex 3.85673 4.59627 27
      vertex 4.59627 3.85673 27
    endloop
  endfacet
  facet normal 0.573576 0.819152 0
    outer loop
      vertex 3 5.19615 0
      vertex 3 5.19615 27
      vertex 3.85673 4.59627 0
    endloop
  endfacet
  facet normal 0.573576 0.819152 0
    outer loop
      vertex 3.85673 4.59627 0
      vertex 3 5.19615 27
      vertex 3.85673 4.59627 27
    endloop
  endfacet
  facet normal 0.422619 0.906308 0
    outer loop
      vertex 2.05212 5.63816 0
      vertex 2.05212 5.63816 27
      vertex 3 5.19615 0
    endloop
  endfacet
  facet normal 0.422619 0.906308 0
    outer loop
      vertex 3 5.19615 0
      vertex 2.05212 5.63816 27
      vertex 3 5.19615 27
    endloop
  endfacet
  facet normal 0.258819 0.965926 0
    outer loop
      vertex 1.04189 5.90885 0
      vertex 1.04189 5.90885 27
      vertex 2.05212 5.63816 0
    endloop
  endfacet
  facet normal 0.258819 0.965926 0
    outer loop
      vertex 2.05212 5.63816 0
      vertex 1.04189 5.90885 27
      vertex 2.05212 5.63816 27
    endloop
  endfacet
  facet normal 0.0871553 0.996195 0
    outer loop
      vertex 0 6 0
      vertex 0 6 27
      vertex 1.04189 5.90885 0
    endloop
  endfacet
  facet normal 0.0871553 0.996195 0
    outer loop
      vertex 1.04189 5.90885 0
      vertex 0 6 27
      vertex 1.04189 5.90885 27
    endloop
  endfacet
  facet normal -0.0871553 0.996195 0
    outer loop
      vertex -1.04189 5.90885 0
      vertex -1.04189 5.90885 27
      vertex 0 6 0
    endloop
  endfacet
  facet normal -0.0871553 0.996195 0
    outer loop
      vertex 0 6 0
      vertex -1.04189 5.90885 27
      vertex 0 6 27
    endloop
  endfacet
  facet normal -0.258819 0.965926 0
    outer loop
      vertex -2.05212 5.63816 0
      vertex -2.05212 5.63816 27
      vertex -1.04189 5.90885 0
    endloop
  endfacet
  facet normal -0.258819 0.965926 0
    outer loop
      vertex -1.04189 5.90885 0
      vertex -2.05212 5.63816 27
      vertex -1.04189 5.90885 27
    endloop
  endfacet
  facet normal -0.422619 0.906308 0
    outer loop
      vertex -3 5.19615 0
      vertex -3 5.19615 27
      vertex -2.05212 5.63816 0
    endloop
  endfacet
  facet normal -0.422619 0.906308 0
    outer loop
      vertex -2.05212 5.63816 0
      vertex -3 5.19615 27
      vertex -2.05212 5.63816 27
    endloop
  endfacet
  facet normal -0.573576 0.819152 0
    outer loop
      vertex -3.85673 4.59627 0
      vertex -3.85673 4.59627 27
      vertex -3 5.19615 0
    endloop
  endfacet
  facet normal -0.573576 0.819152 0
    outer loop
      vertex -3 5.19615 0
      vertex -3.85673 4.59627 27
      vertex -3 5.19615 27
    endloop
  endfacet
  facet normal -0.707107 0.707107 0
    outer loop
      vertex -4.59627 3.85673 0
      vertex -4.59627 3.85673 27
      vertex -3.85673 4.59627 0
    endloop
  endfacet
  facet normal -0.707107 0.707107 0
    outer loop
      vertex -3.85673 4.59627 0
      vertex -4.59627 3.85673 27
      vertex -3.85673 4.59627 27
    endloop
  endfacet
  facet normal -0.819152 0.573576 0
    outer loop
      vertex -5.19615 3 0
      vertex -5.19615 3 27
      vertex -4.59627 3.85673 0
    endloop
  endfacet
  facet normal -0.819152 0.573576 0
    outer loop
      vertex -4.59627 3.85673 0
      vertex -5.19615 3 27
      vertex -4.59627 3.85673 27
    endloop
  endfacet
  facet normal -0.906308 0.422619 0
    outer loop
      vertex -5.63816 2.05212 0
      vertex -5.63816 2.05212 27
      vertex -5.19615 3 0
    endloop
  endfacet
  facet normal -0.906308 0.422619 0
    outer loop
      vertex -5.19615 3 0
      vertex -5.63816 2.05212 27
      vertex -5.19615 3 27
    endloop
  endfacet
  facet normal -0.965926 0.258819 0
    outer loop
      vertex -5.90885 1.04189 0
      vertex -5.90885 1.04189 27
      vertex -5.63816 2.05212 0
    endloop
  endfacet
  facet normal -0.965926 0.258819 0
    outer loop
      vertex -5.63816 2.05212 0
      vertex -5.90885 1.04189 27
      vertex -5.63816 2.05212 27
    endloop
  endfacet
  facet normal 0.996195 0.0871572 0
    outer loop
      vertex -1.6 0 27
      vertex -1.57569 -0.277837 27
      vertex -1.57569 -0.277837 0
    endloop
  endfacet
  facet normal 0.996195 0.0871572 0
    outer loop
      vertex -1.6 0 0
      vertex -1.6 0 27
      vertex -1.57569 -0.277837 0
    endloop
  endfacet
  facet normal 0.996195 -0.0871572 0
    outer loop
      vertex -1.57569 0.277837 0
      vertex -1.57569 0.277837 27
      vertex -1.6 0 27
    endloop
  endfacet
  facet normal 0.996195 -0.0871572 0
    outer loop
      vertex -1.6 0 0
      vertex -1.57569 0.277837 0
      vertex -1.6 0 27
    endloop
  endfacet
  facet normal 0.965926 -0.258818 0
    outer loop
      vertex -1.50351 0.547232 0
      vertex -1.50351 0.547232 27
      vertex -1.57569 0.277837 27
    endloop
  endfacet
  facet normal 0.965926 -0.258818 0
    outer loop
      vertex -1.57569 0.277837 0
      vertex -1.50351 0.547232 0
      vertex -1.57569 0.277837 27
    endloop
  endfacet
  facet normal 0.906309 -0.422616 0
    outer loop
      vertex -1.38564 0.8 0
      vertex -1.38564 0.8 27
      vertex -1.50351 0.547232 27
    endloop
  endfacet
  facet normal 0.906309 -0.422616 0
    outer loop
      vertex -1.50351 0.547232 0
      vertex -1.38564 0.8 0
      vertex -1.50351 0.547232 27
    endloop
  endfacet
  facet normal 0.819151 -0.573578 0
    outer loop
      vertex -1.22567 1.02846 0
      vertex -1.22567 1.02846 27
      vertex -1.38564 0.8 27
    endloop
  endfacet
  facet normal 0.819151 -0.573578 0
    outer loop
      vertex -1.38564 0.8 0
      vertex -1.22567 1.02846 0
      vertex -1.38564 0.8 27
    endloop
  endfacet
  facet normal 0.707107 -0.707107 0
    outer loop
      vertex -1.02846 1.22567 0
      vertex -1.02846 1.22567 27
      vertex -1.22567 1.02846 27
    endloop
  endfacet
  facet normal 0.707107 -0.707107 0
    outer loop
      vertex -1.22567 1.02846 0
      vertex -1.02846 1.22567 0
      vertex -1.22567 1.02846 27
    endloop
  endfacet
  facet normal 0.573578 -0.819151 0
    outer loop
      vertex -0.8 1.38564 0
      vertex -0.8 1.38564 27
      vertex -1.02846 1.22567 27
    endloop
  endfacet
  facet normal 0.573578 -0.819151 0
    outer loop
      vertex -1.02846 1.22567 0
      vertex -0.8 1.38564 0
      vertex -1.02846 1.22567 27
    endloop
  endfacet
  facet normal 0.422616 -0.906309 0
    outer loop
      vertex -0.547232 1.50351 0
      vertex -0.547232 1.50351 27
      vertex -0.8 1.38564 27
    endloop
  endfacet
  facet normal 0.422616 -0.906309 0
    outer loop
      vertex -0.8 1.38564 0
      vertex -0.547232 1.50351 0
      vertex -0.8 1.38564 27
    endloop
  endfacet
  facet normal 0.258818 -0.965926 0
    outer loop
      vertex -0.277837 1.57569 0
      vertex -0.277837 1.57569 27
      vertex -0.547232 1.50351 27
    endloop
  endfacet
  facet normal 0.258818 -0.965926 0
    outer loop
      vertex -0.547232 1.50351 0
      vertex -0.277837 1.57569 0
      vertex -0.547232 1.50351 27
    endloop
  endfacet
  facet normal 0.0871572 -0.996195 0
    outer loop
      vertex 0 1.6 0
      vertex 0 1.6 27
      vertex -0.277837 1.57569 27
    endloop
  endfacet
  facet normal 0.0871572 -0.996195 0
    outer loop
      vertex -0.277837 1.57569 0
      vertex 0 1.6 0
      vertex -0.277837 1.57569 27
    endloop
  endfacet
  facet normal -0.0871572 -0.996195 -0
    outer loop
      vertex 0.277837 1.57569 0
      vertex 0.277837 1.57569 27
      vertex 0 1.6 27
    endloop
  endfacet
  facet normal -0.0871572 -0.996195 -0
    outer loop
      vertex 0 1.6 0
      vertex 0.277837 1.57569 0
      vertex 0 1.6 27
    endloop
  endfacet
  facet normal -0.258818 -0.965926 -0
    outer loop
      vertex 0.547232 1.50351 0
      vertex 0.547232 1.50351 27
      vertex 0.277837 1.57569 27
    endloop
  endfacet
  facet normal -0.258818 -0.965926 -0
    outer loop
      vertex 0.277837 1.57569 0
      vertex 0.547232 1.50351 0
      vertex 0.277837 1.57569 27
    endloop
  endfacet
  facet normal -0.422616 -0.906309 -0
    outer loop
      vertex 0.8 1.38564 0
      vertex 0.8 1.38564 27
      vertex 0.547232 1.50351 27
    endloop
  endfacet
  facet normal -0.422616 -0.906309 -0
    outer loop
      vertex 0.547232 1.50351 0
      vertex 0.8 1.38564 0
      vertex 0.547232 1.50351 27
    endloop
  endfacet
  facet normal -0.573578 -0.819151 -0
    outer loop
      vertex 1.02846 1.22567 0
      vertex 1.02846 1.22567 27
      vertex 0.8 1.38564 27
    endloop
  endfacet
  facet normal -0.573578 -0.819151 -0
    outer loop
      vertex 0.8 1.38564 0
      vertex 1.02846 1.22567 0
      vertex 0.8 1.38564 27
    endloop
  endfacet
  facet normal -0.707107 -0.707107 -0
    outer loop
      vertex 1.22567 1.02846 0
      vertex 1.22567 1.02846 27
      vertex 1.02846 1.22567 27
    endloop
  endfacet
  facet normal -0.707107 -0.707107 -0
    outer loop
      vertex 1.02846 1.22567 0
      vertex 1.22567 1.02846 0
      vertex 1.02846 1.22567 27
    endloop
  endfacet
  facet normal -0.819151 -0.573578 0
    outer loop
      vertex 1.38564 0.8 27
      vertex 1.22567 1.02846 27
      vertex 1.38564 0.8 0
    endloop
  endfacet
  facet normal -0.819151 -0.573578 0
    outer loop
      vertex 1.38564 0.8 0
      vertex 1.22567 1.02846 27
      vertex 1.22567 1.02846 0
    endloop
  endfacet
  facet normal -0.906309 -0.422616 0
    outer loop
      vertex 1.50351 0.547232 27
      vertex 1.38564 0.8 27
      vertex 1.50351 0.547232 0
    endloop
  endfacet
  facet normal -0.906309 -0.422616 0
    outer loop
      vertex 1.50351 0.547232 0
      vertex 1.38564 0.8 27
      vertex 1.38564 0.8 0
    endloop
  endfacet
  facet normal -0.965926 -0.258818 0
    outer loop
      vertex 1.57569 0.277837 27
      vertex 1.50351 0.547232 27
      vertex 1.57569 0.277837 0
    endloop
  endfacet
  facet normal -0.965926 -0.258818 0
    outer loop
      vertex 1.57569 0.277837 0
      vertex 1.50351 0.547232 27
      vertex 1.50351 0.547232 0
    endloop
  endfacet
  facet normal -0.996195 -0.0871572 0
    outer loop
      vertex 1.6 0 27
      vertex 1.57569 0.277837 27
      vertex 1.6 0 0
    endloop
  endfacet
  facet normal -0.996195 -0.0871572 0
    outer loop
      vertex 1.6 0 0
      vertex 1.57569 0.277837 27
      vertex 1.57569 0.277837 0
    endloop
  endfacet
  facet normal -0.996195 0.0871572 0
    outer loop
      vertex 1.6 0 27
      vertex 1.6 0 0
      vertex 1.57569 -0.277837 27
    endloop
  endfacet
  facet normal -0.996195 0.0871572 0
    outer loop
      vertex 1.57569 -0.277837 27
      vertex 1.6 0 0
      vertex 1.57569 -0.277837 0
    endloop
  endfacet
  facet normal -0.965926 0.258818 0
    outer loop
      vertex 1.57569 -0.277837 27
      vertex 1.57569 -0.277837 0
      vertex 1.50351 -0.547232 27
    endloop
  endfacet
  facet normal -0.965926 0.258818 0
    outer loop
      vertex 1.50351 -0.547232 27
      vertex 1.57569 -0.277837 0
      vertex 1.50351 -0.547232 0
    endloop
  endfacet
  facet normal -0.906309 0.422616 0
    outer loop
      vertex 1.50351 -0.547232 27
      vertex 1.50351 -0.547232 0
      vertex 1.38564 -0.8 27
    endloop
  endfacet
  facet normal -0.906309 0.422616 0
    outer loop
      vertex 1.38564 -0.8 27
      vertex 1.50351 -0.547232 0
      vertex 1.38564 -0.8 0
    endloop
  endfacet
  facet normal -0.819151 0.573578 0
    outer loop
      vertex 1.38564 -0.8 27
      vertex 1.38564 -0.8 0
      vertex 1.22567 -1.02846 27
    endloop
  endfacet
  facet normal -0.819151 0.573578 0
    outer loop
      vertex 1.22567 -1.02846 27
      vertex 1.38564 -0.8 0
      vertex 1.22567 -1.02846 0
    endloop
  endfacet
  facet normal -0.707107 0.707107 0
    outer loop
      vertex 1.22567 -1.02846 27
      vertex 1.22567 -1.02846 0
      vertex 1.02846 -1.22567 27
    endloop
  endfacet
  facet normal -0.707107 0.707107 0
    outer loop
      vertex 1.02846 -1.22567 27
      vertex 1.22567 -1.02846 0
      vertex 1.02846 -1.22567 0
    endloop
  endfacet
  facet normal -0.573578 0.819151 0
    outer loop
      vertex 1.02846 -1.22567 27
      vertex 1.02846 -1.22567 0
      vertex 0.8 -1.38564 27
    endloop
  endfacet
  facet normal -0.573578 0.819151 0
    outer loop
      vertex 0.8 -1.38564 27
      vertex 1.02846 -1.22567 0
      vertex 0.8 -1.38564 0
    endloop
  endfacet
  facet normal -0.422616 0.906309 0
    outer loop
      vertex 0.8 -1.38564 27
      vertex 0.8 -1.38564 0
      vertex 0.547232 -1.50351 27
    endloop
  endfacet
  facet normal -0.422616 0.906309 0
    outer loop
      vertex 0.547232 -1.50351 27
      vertex 0.8 -1.38564 0
      vertex 0.547232 -1.50351 0
    endloop
  endfacet
  facet normal -0.258818 0.965926 0
    outer loop
      vertex 0.547232 -1.50351 27
      vertex 0.547232 -1.50351 0
      vertex 0.277837 -1.57569 27
    endloop
  endfacet
  facet normal -0.258818 0.965926 0
    outer loop
      vertex 0.277837 -1.57569 27
      vertex 0.547232 -1.50351 0
      vertex 0.277837 -1.57569 0
    endloop
  endfacet
  facet normal -0.0871572 0.996195 0
    outer loop
      vertex 0.277837 -1.57569 27
      vertex 0.277837 -1.57569 0
      vertex 0 -1.6 27
    endloop
  endfacet
  facet normal -0.0871572 0.996195 0
    outer loop
      vertex 0 -1.6 27
      vertex 0.277837 -1.57569 0
      vertex 0 -1.6 0
    endloop
  endfacet
  facet normal 0.0871572 0.996195 -0
    outer loop
      vertex 0 -1.6 27
      vertex 0 -1.6 0
      vertex -0.277837 -1.57569 27
    endloop
  endfacet
  facet normal 0.0871572 0.996195 -0
    outer loop
      vertex -0.277837 -1.57569 27
      vertex 0 -1.6 0
      vertex -0.277837 -1.57569 0
    endloop
  endfacet
  facet normal 0.258818 0.965926 -0
    outer loop
      vertex -0.277837 -1.57569 27
      vertex -0.277837 -1.57569 0
      vertex -0.547232 -1.50351 27
    endloop
  endfacet
  facet normal 0.258818 0.965926 -0
    outer loop
      vertex -0.547232 -1.50351 27
      vertex -0.277837 -1.57569 0
      vertex -0.547232 -1.50351 0
    endloop
  endfacet
  facet normal 0.422616 0.906309 -0
    outer loop
      vertex -0.547232 -1.50351 27
      vertex -0.547232 -1.50351 0
      vertex -0.8 -1.38564 27
    endloop
  endfacet
  facet normal 0.422616 0.906309 -0
    outer loop
      vertex -0.8 -1.38564 27
      vertex -0.547232 -1.50351 0
      vertex -0.8 -1.38564 0
    endloop
  endfacet
  facet normal 0.573578 0.819151 -0
    outer loop
      vertex -0.8 -1.38564 27
      vertex -0.8 -1.38564 0
      vertex -1.02846 -1.22567 27
    endloop
  endfacet
  facet normal 0.573578 0.819151 -0
    outer loop
      vertex -1.02846 -1.22567 27
      vertex -0.8 -1.38564 0
      vertex -1.02846 -1.22567 0
    endloop
  endfacet
  facet normal 0.707107 0.707107 -0
    outer loop
      vertex -1.02846 -1.22567 27
      vertex -1.02846 -1.22567 0
      vertex -1.22567 -1.02846 27
    endloop
  endfacet
  facet normal 0.707107 0.707107 -0
    outer loop
      vertex -1.22567 -1.02846 27
      vertex -1.02846 -1.22567 0
      vertex -1.22567 -1.02846 0
    endloop
  endfacet
  facet normal 0.819151 0.573578 0
    outer loop
      vertex -1.38564 -0.8 27
      vertex -1.22567 -1.02846 27
      vertex -1.22567 -1.02846 0
    endloop
  endfacet
  facet normal 0.819151 0.573578 0
    outer loop
      vertex -1.38564 -0.8 0
      vertex -1.38564 -0.8 27
      vertex -1.22567 -1.02846 0
    endloop
  endfacet
  facet normal 0.906309 0.422616 0
    outer loop
      vertex -1.50351 -0.547232 27
      vertex -1.38564 -0.8 27
      vertex -1.38564 -0.8 0
    endloop
  endfacet
  facet normal 0.906309 0.422616 0
    outer loop
      vertex -1.50351 -0.547232 0
      vertex -1.50351 -0.547232 27
      vertex -1.38564 -0.8 0
    endloop
  endfacet
  facet normal 0.965926 0.258818 0
    outer loop
      vertex -1.57569 -0.277837 27
      vertex -1.50351 -0.547232 27
      vertex -1.50351 -0.547232 0
    endloop
  endfacet
  facet normal 0.965926 0.258818 0
    outer loop
      vertex -1.57569 -0.277837 0
      vertex -1.57569 -0.277837 27
      vertex -1.50351 -0.547232 0
    endloop
  endfacet
  facet normal 0 0 1
    outer loop
      vertex -5.90885 1.04189 27
      vertex -6 0 27
      vertex -5.90885 -1.04189 27
    endloop
  endfacet
  facet normal 0 0 1
    outer loop
      vertex -5.19615 -3 27
      vertex -5.90885 1.04189 27
      vertex -5.63816 -2.05212 27
    endloop
  endfacet
  facet normal 0 0 1
    outer loop
      vertex -5.63816 -2.05212 27
      vertex -5.90885 1.04189 27
      vertex -5.90885 -1.04189 27
    endloop
  endfacet
  facet normal 0 0 1
    outer loop
      vertex -4.59627 -3.85673 27
      vertex -5.90885 1.04189 27
      vertex -5.19615 -3 27
    endloop
  endfacet
  facet normal 0 0 1
    outer loop
      vertex -3.85673 -4.59627 27
      vertex -5.90885 1.04189 27
      vertex -4.59627 -3.85673 27
    endloop
  endfacet
  facet normal 0 0 1
    outer loop
      vertex -3 -5.19615 27
      vertex -5.90885 1.04189 27
      vertex -3.85673 -4.59627 27
    endloop
  endfacet
  facet normal 0 0 1
    outer loop
      vertex -2.05212 -5.63816 27
      vertex -5.90885 1.04189 27
      vertex -3 -5.19615 27
    endloop
  endfacet
  facet normal 0 0 1
    outer loop
      vertex -1.04189 -5.90885 27
      vertex -5.90885 1.04189 27
      vertex -2.05212 -5.63816 27
    endloop
  endfacet
  facet normal 0 0 1
    outer loop
      vertex 0 -6 27
      vertex -5.90885 1.04189 27
      vertex -1.04189 -5.90885 27
    endloop
  endfacet
  facet normal -0 0 1
    outer loop
      vertex 1.04189 -5.90885 27
      vertex -5.90885 1.04189 27
      vertex 0 -6 27
    endloop
  endfacet
  facet normal -0 0 1
    outer loop
      vertex 2.05212 -5.63816 27
      vertex -5.90885 1.04189 27
      vertex 1.04189 -5.90885 27
    endloop
  endfacet
  facet normal -0 0 1
    outer loop
      vertex 3 -5.19615 27
      vertex -5.90885 1.04189 27
      vertex 2.05212 -5.63816 27
    endloop
  endfacet
  facet normal -0 0 1
    outer loop
      vertex 3.85673 -4.59627 27
      vertex -5.90885 1.04189 27
      vertex 3 -5.19615 27
    endloop
  endfacet
  facet normal -0 -0 1
    outer loop
      vertex -0.8 -1.38564 27
      vertex -5.90885 1.04189 27
      vertex 3.85673 -4.59627 27
    endloop
  endfacet
  facet normal -0 -0 1
    outer loop
      vertex -0.277837 -1.57569 27
      vertex -0.547232 -1.50351 27
      vertex 4.59627 -3.85673 27
    endloop
  endfacet
  facet normal 0 0 1
    outer loop
      vertex 1.57569 0.277837 27
      vertex 1.6 0 27
      vertex 6 0 27
    endloop
  endfacet
  facet normal 0 0 1
    outer loop
      vertex 1.22567 1.02846 27
      vertex 1.38564 0.8 27
      vertex 5.90885 1.04189 27
    endloop
  endfacet
  facet normal 0 0 1
    outer loop
      vertex 0.277837 1.57569 27
      vertex 0.547232 1.50351 27
      vertex 5.63816 2.05212 27
    endloop
  endfacet
  facet normal 0 -0 1
    outer loop
      vertex 4.59627 3.85673 27
      vertex -5.90885 1.04189 27
      vertex 5.19615 3 27
    endloop
  endfacet
  facet normal 0 -0 1
    outer loop
      vertex 3.85673 4.59627 27
      vertex -5.90885 1.04189 27
      vertex 4.59627 3.85673 27
    endloop
  endfacet
  facet normal 0 -0 1
    outer loop
      vertex 3 5.19615 27
      vertex -5.90885 1.04189 27
      vertex 3.85673 4.59627 27
    endloop
  endfacet
  facet normal 0 -0 1
    outer loop
      vertex 2.05212 5.63816 27
      vertex -5.90885 1.04189 27
      vertex 3 5.19615 27
    endloop
  endfacet
  facet normal 0 -0 1
    outer loop
      vertex 1.04189 5.90885 27
      vertex -5.90885 1.04189 27
      vertex 2.05212 5.63816 27
    endloop
  endfacet
  facet normal 0 -0 1
    outer loop
      vertex 0 6 27
      vertex -5.90885 1.04189 27
      vertex 1.04189 5.90885 27
    endloop
  endfacet
  facet normal 0 -0 1
    outer loop
      vertex -1.04189 5.90885 27
      vertex -5.90885 1.04189 27
      vertex 0 6 27
    endloop
  endfacet
  facet normal 0 -0 1
    outer loop
      vertex -2.05212 5.63816 27
      vertex -5.90885 1.04189 27
      vertex -1.04189 5.90885 27
    endloop
  endfacet
  facet normal 0 -0 1
    outer loop
      vertex -3 5.19615 27
      vertex -5.90885 1.04189 27
      vertex -2.05212 5.63816 27
    endloop
  endfacet
  facet normal 0 -0 1
    outer loop
      vertex -3.85673 4.59627 27
      vertex -5.90885 1.04189 27
      vertex -3 5.19615 27
    endloop
  endfacet
  facet normal 0 -0 1
    outer loop
      vertex -4.59627 3.85673 27
      vertex -5.90885 1.04189 27
      vertex -3.85673 4.59627 27
    endloop
  endfacet
  facet normal 0 -0 1
    outer loop
      vertex -5.19615 3 27
      vertex -5.90885 1.04189 27
      vertex -4.59627 3.85673 27
    endloop
  endfacet
  facet normal 0 -0 1
    outer loop
      vertex -5.63816 2.05212 27
      vertex -5.90885 1.04189 27
      vertex -5.19615 3 27
    endloop
  endfacet
  facet normal 0 -0 1
    outer loop
      vertex 0.8 -1.38564 27
      vertex 0.547232 -1.50351 27
      vertex 5.19615 -3 27
    endloop
  endfacet
  facet normal 0 0 1
    outer loop
      vertex -0.8 -1.38564 27
      vertex -1.02846 -1.22567 27
      vertex -5.90885 1.04189 27
    endloop
  endfacet
  facet normal 0 0 1
    outer loop
      vertex 0 1.6 27
      vertex 0.277837 1.57569 27
      vertex 5.63816 2.05212 27
    endloop
  endfacet
  facet normal 0 -0 1
    outer loop
      vertex 1.57569 -0.277837 27
      vertex 1.50351 -0.547232 27
      vertex 5.90885 -1.04189 27
    endloop
  endfacet
  facet normal -0 0 1
    outer loop
      vertex -1.50351 0.547232 27
      vertex -5.90885 1.04189 27
      vertex -1.57569 0.277837 27
    endloop
  endfacet
  facet normal 0 0 1
    outer loop
      vertex -1.22567 1.02846 27
      vertex -1.02846 1.22567 27
      vertex -5.90885 1.04189 27
    endloop
  endfacet
  facet normal 0 -0 1
    outer loop
      vertex 1.38564 -0.8 27
      vertex 1.22567 -1.02846 27
      vertex 5.63816 -2.05212 27
    endloop
  endfacet
  facet normal -0 0 1
    outer loop
      vertex -1.22567 1.02846 27
      vertex -5.90885 1.04189 27
      vertex -1.38564 0.8 27
    endloop
  endfacet
  facet normal -0 0 1
    outer loop
      vertex -0.547232 1.50351 27
      vertex -0.277837 1.57569 27
      vertex -5.90885 1.04189 27
    endloop
  endfacet
  facet normal 0 0 1
    outer loop
      vertex 1.50351 0.547232 27
      vertex 1.57569 0.277837 27
      vertex 6 0 27
    endloop
  endfacet
  facet normal 0 0 1
    outer loop
      vertex -0.8 1.38564 27
      vertex -5.90885 1.04189 27
      vertex -1.02846 1.22567 27
    endloop
  endfacet
  facet normal 0 0 1
    outer loop
      vertex -0.547232 1.50351 27
      vertex -5.90885 1.04189 27
      vertex -0.8 1.38564 27
    endloop
  endfacet
  facet normal 0 0 1
    outer loop
      vertex 1.02846 1.22567 27
      vertex 1.22567 1.02846 27
      vertex 5.90885 1.04189 27
    endloop
  endfacet
  facet normal 0 0 1
    outer loop
      vertex 5.19615 3 27
      vertex -5.90885 1.04189 27
      vertex -0.277837 1.57569 27
    endloop
  endfacet
  facet normal 0 -0 1
    outer loop
      vertex 5.19615 3 27
      vertex 0 1.6 27
      vertex 5.63816 2.05212 27
    endloop
  endfacet
  facet normal 0 0 1
    outer loop
      vertex 5.19615 3 27
      vertex -0.277837 1.57569 27
      vertex 0 1.6 27
    endloop
  endfacet
  facet normal 0 0 1
    outer loop
      vertex 0.547232 1.50351 27
      vertex 0.8 1.38564 27
      vertex 5.63816 2.05212 27
    endloop
  endfacet
  facet normal 0 -0 1
    outer loop
      vertex 5.63816 2.05212 27
      vertex 0.8 1.38564 27
      vertex 5.90885 1.04189 27
    endloop
  endfacet
  facet normal 0 0 1
    outer loop
      vertex 0.8 1.38564 27
      vertex 1.02846 1.22567 27
      vertex 5.90885 1.04189 27
    endloop
  endfacet
  facet normal 0 -0 1
    outer loop
      vertex 5.90885 1.04189 27
      vertex 1.38564 0.8 27
      vertex 6 0 27
    endloop
  endfacet
  facet normal 0 0 1
    outer loop
      vertex 1.38564 0.8 27
      vertex 1.50351 0.547232 27
      vertex 6 0 27
    endloop
  endfacet
  facet normal 0 -0 1
    outer loop
      vertex 1.6 0 27
      vertex 1.57569 -0.277837 27
      vertex 5.90885 -1.04189 27
    endloop
  endfacet
  facet normal 0 0 1
    outer loop
      vertex 6 0 27
      vertex 1.6 0 27
      vertex 5.90885 -1.04189 27
    endloop
  endfacet
  facet normal 0 0 1
    outer loop
      vertex -1.50351 0.547232 27
      vertex -1.38564 0.8 27
      vertex -5.90885 1.04189 27
    endloop
  endfacet
  facet normal -0 0 1
    outer loop
      vertex 5.90885 -1.04189 27
      vertex 1.50351 -0.547232 27
      vertex 5.63816 -2.05212 27
    endloop
  endfacet
  facet normal 0 -0 1
    outer loop
      vertex 1.50351 -0.547232 27
      vertex 1.38564 -0.8 27
      vertex 5.63816 -2.05212 27
    endloop
  endfacet
  facet normal -0 0 1
    outer loop
      vertex 5.63816 -2.05212 27
      vertex 1.22567 -1.02846 27
      vertex 5.19615 -3 27
    endloop
  endfacet
  facet normal 0 -0 1
    outer loop
      vertex 1.22567 -1.02846 27
      vertex 1.02846 -1.22567 27
      vertex 5.19615 -3 27
    endloop
  endfacet
  facet normal -0 0 1
    outer loop
      vertex 5.19615 -3 27
      vertex 0.547232 -1.50351 27
      vertex 4.59627 -3.85673 27
    endloop
  endfacet
  facet normal 0 0 1
    outer loop
      vertex -1.02846 -1.22567 27
      vertex -1.22567 -1.02846 27
      vertex -5.90885 1.04189 27
    endloop
  endfacet
  facet normal 0 -0 1
    outer loop
      vertex 0.547232 -1.50351 27
      vertex 0.277837 -1.57569 27
      vertex 4.59627 -3.85673 27
    endloop
  endfacet
  facet normal 0 -0 1
    outer loop
      vertex 0.277837 -1.57569 27
      vertex 0 -1.6 27
      vertex 4.59627 -3.85673 27
    endloop
  endfacet
  facet normal -0 -0 1
    outer loop
      vertex 0 -1.6 27
      vertex -0.277837 -1.57569 27
      vertex 4.59627 -3.85673 27
    endloop
  endfacet
  facet normal -0 0 1
    outer loop
      vertex 4.59627 -3.85673 27
      vertex -0.547232 -1.50351 27
      vertex 3.85673 -4.59627 27
    endloop
  endfacet
  facet normal -0 -0 1
    outer loop
      vertex -0.547232 -1.50351 27
      vertex -0.8 -1.38564 27
      vertex 3.85673 -4.59627 27
    endloop
  endfacet
  facet normal 0 0 1
    outer loop
      vertex -1.38564 -0.8 27
      vertex -1.50351 -0.547232 27
      vertex -5.90885 1.04189 27
    endloop
  endfacet
  facet normal 0 0 1
    outer loop
      vertex -1.22567 -1.02846 27
      vertex -1.38564 -0.8 27
      vertex -5.90885 1.04189 27
    endloop
  endfacet
  facet normal -0 -0 1
    outer loop
      vertex -1.57569 -0.277837 27
      vertex -5.90885 1.04189 27
      vertex -1.50351 -0.547232 27
    endloop
  endfacet
  facet normal 0 -0 1
    outer loop
      vertex 1.02846 -1.22567 27
      vertex 0.8 -1.38564 27
      vertex 5.19615 -3 27
    endloop
  endfacet
  facet normal 0 0 1
    outer loop
      vertex -1.57569 -0.277837 27
      vertex -1.6 0 27
      vertex -5.90885 1.04189 27
    endloop
  endfacet
  facet normal 0 0 1
    outer loop
      vertex -1.6 0 27
      vertex -1.57569 0.277837 27
      vertex -5.90885 1.04189 27
    endloop
  endfacet
endsolid OpenSCAD_Model
