solid OpenSCAD_Model
  facet normal -1 0 0
    outer loop
      vertex 0 2.22045e-018 0.01
      vertex 0 -4.5 0.01
      vertex 0 4.43867e-015 19.99
    endloop
  endfacet
  facet normal -1 0 0
    outer loop
      vertex 0 4.43867e-015 19.99
      vertex 0 -4.5 0.01
      vertex 0 -4.5 19.99
    endloop
  endfacet
  facet normal 0 -2.22045e-016 -1
    outer loop
      vertex 30.0472 -6.69 0.01
      vertex 36.5412 -6.69 0.01
      vertex 36.5412 -10.2 0.01
    endloop
  endfacet
  facet normal 0 -2.22045e-016 -1
    outer loop
      vertex 30.0472 -6.69 0.01
      vertex 36.5412 -10.2 0.01
      vertex 24.9942 -10.2 0.01
    endloop
  endfacet
  facet normal 0 -2.22045e-016 -1
    outer loop
      vertex 30.0472 -6.69 0.01
      vertex 24.9942 -10.2 0.01
      vertex 30.0472 2.22045e-018 0.01
    endloop
  endfacet
  facet normal 0 -2.22045e-016 -1
    outer loop
      vertex 24.9942 -10.2 0.01
      vertex 24.9942 -4.5 0.01
      vertex 30.0472 2.22045e-018 0.01
    endloop
  endfacet
  facet normal 0 -2.22045e-016 -1
    outer loop
      vertex 24.9942 -4.5 0.01
      vertex 0 -4.5 0.01
      vertex 30.0472 2.22045e-018 0.01
    endloop
  endfacet
  facet normal 0 -2.22045e-016 -1
    outer loop
      vertex 0 -4.5 0.01
      vertex 0 2.22045e-018 0.01
      vertex 30.0472 2.22045e-018 0.01
    endloop
  endfacet
  facet normal 0 1 -2.22045e-016
    outer loop
      vertex 10.2111 2.32347e-015 10.464
      vertex 0 4.43867e-015 19.99
      vertex 30.0472 2.22045e-018 0.01
    endloop
  endfacet
  facet normal 0 1 -2.22045e-016
    outer loop
      vertex 30.0472 2.22045e-018 0.01
      vertex 0 4.43867e-015 19.99
      vertex 18.5118 4.43867e-015 19.99
    endloop
  endfacet
  facet normal 0 1 -2.22045e-016
    outer loop
      vertex 0 2.22045e-018 0.01
      vertex 0 4.43867e-015 19.99
      vertex 7.1 1.9984e-015 9
    endloop
  endfacet
  facet normal 0 1 -2.22045e-016
    outer loop
      vertex 0 2.22045e-018 0.01
      vertex 7.1 1.9984e-015 9
      vertex 7.11498 1.94553e-015 8.76187
    endloop
  endfacet
  facet normal 0 1 -2.22045e-016
    outer loop
      vertex 0 2.22045e-018 0.01
      vertex 7.11498 1.94553e-015 8.76187
      vertex 7.15969 1.89348e-015 8.52749
    endloop
  endfacet
  facet normal 0 1 -2.22045e-016
    outer loop
      vertex 0 2.22045e-018 0.01
      vertex 7.15969 1.89348e-015 8.52749
      vertex 7.23342 1.8431e-015 8.30056
    endloop
  endfacet
  facet normal 0 1 -2.22045e-016
    outer loop
      vertex 0 2.22045e-018 0.01
      vertex 7.23342 1.8431e-015 8.30056
      vertex 7.33502 1.79516e-015 8.08467
    endloop
  endfacet
  facet normal 0 1 -2.22045e-016
    outer loop
      vertex 0 2.22045e-018 0.01
      vertex 7.33502 1.79516e-015 8.08467
      vertex 7.46287 1.75042e-015 7.88321
    endloop
  endfacet
  facet normal 0 1 -2.22045e-016
    outer loop
      vertex 0 2.22045e-018 0.01
      vertex 7.46287 1.75042e-015 7.88321
      vertex 7.61496 1.7096e-015 7.69936
    endloop
  endfacet
  facet normal 0 1 -2.22045e-016
    outer loop
      vertex 0 2.22045e-018 0.01
      vertex 7.61496 1.7096e-015 7.69936
      vertex 7.78889 1.67333e-015 7.53602
    endloop
  endfacet
  facet normal 0 1 -2.22045e-016
    outer loop
      vertex 0 2.22045e-018 0.01
      vertex 7.78889 1.67333e-015 7.53602
      vertex 7.98193 1.64219e-015 7.39578
    endloop
  endfacet
  facet normal 0 1 -2.22045e-016
    outer loop
      vertex 0 2.22045e-018 0.01
      vertex 7.98193 1.64219e-015 7.39578
      vertex 8.19102 1.61667e-015 7.28083
    endloop
  endfacet
  facet normal 0 1 -2.22045e-016
    outer loop
      vertex 0 2.22045e-018 0.01
      vertex 8.19102 1.61667e-015 7.28083
      vertex 8.41287 1.59717e-015 7.19299
    endloop
  endfacet
  facet normal 0 1 -2.22045e-016
    outer loop
      vertex 0 2.22045e-018 0.01
      vertex 8.41287 1.59717e-015 7.19299
      vertex 30.0472 2.22045e-018 0.01
    endloop
  endfacet
  facet normal 0 1 -2.22045e-016
    outer loop
      vertex 8.8807 1.57735e-015 7.10375
      vertex 30.0472 2.22045e-018 0.01
      vertex 8.64398 1.58399e-015 7.13365
    endloop
  endfacet
  facet normal 0 1 -2.22045e-016
    outer loop
      vertex 9.1193 1.57735e-015 7.10375
      vertex 30.0472 2.22045e-018 0.01
      vertex 8.8807 1.57735e-015 7.10375
    endloop
  endfacet
  facet normal 0 1 -2.22045e-016
    outer loop
      vertex 9.35602 1.58399e-015 7.13365
      vertex 30.0472 2.22045e-018 0.01
      vertex 9.1193 1.57735e-015 7.10375
    endloop
  endfacet
  facet normal 0 1 -2.22045e-016
    outer loop
      vertex 9.58713 1.59717e-015 7.19299
      vertex 30.0472 2.22045e-018 0.01
      vertex 9.35602 1.58399e-015 7.13365
    endloop
  endfacet
  facet normal 0 1 -2.22045e-016
    outer loop
      vertex 9.80898 1.61667e-015 7.28083
      vertex 30.0472 2.22045e-018 0.01
      vertex 9.58713 1.59717e-015 7.19299
    endloop
  endfacet
  facet normal 0 1 -2.22045e-016
    outer loop
      vertex 10.0181 1.64219e-015 7.39578
      vertex 30.0472 2.22045e-018 0.01
      vertex 9.80898 1.61667e-015 7.28083
    endloop
  endfacet
  facet normal 0 1 -2.22045e-016
    outer loop
      vertex 10.2111 1.67333e-015 7.53602
      vertex 30.0472 2.22045e-018 0.01
      vertex 10.0181 1.64219e-015 7.39578
    endloop
  endfacet
  facet normal 0 1 -2.22045e-016
    outer loop
      vertex 10.385 1.7096e-015 7.69936
      vertex 30.0472 2.22045e-018 0.01
      vertex 10.2111 1.67333e-015 7.53602
    endloop
  endfacet
  facet normal 0 1 -2.22045e-016
    outer loop
      vertex 10.5371 1.75042e-015 7.88321
      vertex 30.0472 2.22045e-018 0.01
      vertex 10.385 1.7096e-015 7.69936
    endloop
  endfacet
  facet normal 0 1 -2.22045e-016
    outer loop
      vertex 10.0181 2.35461e-015 10.6042
      vertex 0 4.43867e-015 19.99
      vertex 10.2111 2.32347e-015 10.464
    endloop
  endfacet
  facet normal 0 1 -2.22045e-016
    outer loop
      vertex 7.98193 2.35461e-015 10.6042
      vertex 0 4.43867e-015 19.99
      vertex 8.19102 2.38013e-015 10.7192
    endloop
  endfacet
  facet normal 0 1 -2.22045e-016
    outer loop
      vertex 10.5371 1.75042e-015 7.88321
      vertex 10.665 1.79516e-015 8.08467
      vertex 30.0472 2.22045e-018 0.01
    endloop
  endfacet
  facet normal 0 1 -2.22045e-016
    outer loop
      vertex 8.19102 2.38013e-015 10.7192
      vertex 0 4.43867e-015 19.99
      vertex 8.41287 2.39964e-015 10.807
    endloop
  endfacet
  facet normal 0 1 -2.22045e-016
    outer loop
      vertex 10.665 1.79516e-015 8.08467
      vertex 10.7666 1.8431e-015 8.30056
      vertex 30.0472 2.22045e-018 0.01
    endloop
  endfacet
  facet normal 0 1 -2.22045e-016
    outer loop
      vertex 10.7666 1.8431e-015 8.30056
      vertex 10.8403 1.89348e-015 8.52749
      vertex 30.0472 2.22045e-018 0.01
    endloop
  endfacet
  facet normal 0 1 -2.22045e-016
    outer loop
      vertex 8.41287 2.39964e-015 10.807
      vertex 0 4.43867e-015 19.99
      vertex 8.64398 2.41281e-015 10.8663
    endloop
  endfacet
  facet normal 0 1 -2.22045e-016
    outer loop
      vertex 10.8403 1.89348e-015 8.52749
      vertex 10.885 1.94553e-015 8.76187
      vertex 30.0472 2.22045e-018 0.01
    endloop
  endfacet
  facet normal 0 1 -2.22045e-016
    outer loop
      vertex 8.64398 2.41281e-015 10.8663
      vertex 0 4.43867e-015 19.99
      vertex 8.8807 2.41945e-015 10.8963
    endloop
  endfacet
  facet normal 0 1 -2.22045e-016
    outer loop
      vertex 10.885 1.94553e-015 8.76187
      vertex 10.9 1.9984e-015 9
      vertex 30.0472 2.22045e-018 0.01
    endloop
  endfacet
  facet normal 0 1 -2.22045e-016
    outer loop
      vertex 8.8807 2.41945e-015 10.8963
      vertex 0 4.43867e-015 19.99
      vertex 9.1193 2.41945e-015 10.8963
    endloop
  endfacet
  facet normal 0 1 -2.22045e-016
    outer loop
      vertex 10.9 1.9984e-015 9
      vertex 10.885 2.05128e-015 9.23813
      vertex 30.0472 2.22045e-018 0.01
    endloop
  endfacet
  facet normal 0 1 -2.22045e-016
    outer loop
      vertex 9.1193 2.41945e-015 10.8963
      vertex 0 4.43867e-015 19.99
      vertex 9.35602 2.41281e-015 10.8663
    endloop
  endfacet
  facet normal 0 1 -2.22045e-016
    outer loop
      vertex 10.885 2.05128e-015 9.23813
      vertex 10.8403 2.10332e-015 9.47251
      vertex 30.0472 2.22045e-018 0.01
    endloop
  endfacet
  facet normal 0 1 -2.22045e-016
    outer loop
      vertex 9.35602 2.41281e-015 10.8663
      vertex 0 4.43867e-015 19.99
      vertex 9.58713 2.39964e-015 10.807
    endloop
  endfacet
  facet normal 0 1 -2.22045e-016
    outer loop
      vertex 10.8403 2.10332e-015 9.47251
      vertex 10.7666 2.15371e-015 9.69944
      vertex 30.0472 2.22045e-018 0.01
    endloop
  endfacet
  facet normal 0 1 -2.22045e-016
    outer loop
      vertex 9.58713 2.39964e-015 10.807
      vertex 0 4.43867e-015 19.99
      vertex 9.80898 2.38013e-015 10.7192
    endloop
  endfacet
  facet normal 0 1 -2.22045e-016
    outer loop
      vertex 10.7666 2.15371e-015 9.69944
      vertex 10.665 2.20165e-015 9.91533
      vertex 30.0472 2.22045e-018 0.01
    endloop
  endfacet
  facet normal 0 1 -2.22045e-016
    outer loop
      vertex 10.665 2.20165e-015 9.91533
      vertex 10.5371 2.24638e-015 10.1168
      vertex 30.0472 2.22045e-018 0.01
    endloop
  endfacet
  facet normal 0 1 -2.22045e-016
    outer loop
      vertex 9.80898 2.38013e-015 10.7192
      vertex 0 4.43867e-015 19.99
      vertex 10.0181 2.35461e-015 10.6042
    endloop
  endfacet
  facet normal 0 1 -2.22045e-016
    outer loop
      vertex 10.5371 2.24638e-015 10.1168
      vertex 10.385 2.2872e-015 10.3006
      vertex 30.0472 2.22045e-018 0.01
    endloop
  endfacet
  facet normal 0 1 -2.22045e-016
    outer loop
      vertex 10.385 2.2872e-015 10.3006
      vertex 10.2111 2.32347e-015 10.464
      vertex 30.0472 2.22045e-018 0.01
    endloop
  endfacet
  facet normal 0 1 -2.22045e-016
    outer loop
      vertex 7.78889 2.32347e-015 10.464
      vertex 0 4.43867e-015 19.99
      vertex 7.98193 2.35461e-015 10.6042
    endloop
  endfacet
  facet normal 0 1 -2.22045e-016
    outer loop
      vertex 7.61496 2.2872e-015 10.3006
      vertex 0 4.43867e-015 19.99
      vertex 7.78889 2.32347e-015 10.464
    endloop
  endfacet
  facet normal 0 1 -2.22045e-016
    outer loop
      vertex 7.46287 2.24638e-015 10.1168
      vertex 0 4.43867e-015 19.99
      vertex 7.61496 2.2872e-015 10.3006
    endloop
  endfacet
  facet normal 0 1 -2.22045e-016
    outer loop
      vertex 7.33502 2.20165e-015 9.91533
      vertex 0 4.43867e-015 19.99
      vertex 7.46287 2.24638e-015 10.1168
    endloop
  endfacet
  facet normal 0 1 -2.22045e-016
    outer loop
      vertex 7.23342 2.15371e-015 9.69944
      vertex 0 4.43867e-015 19.99
      vertex 7.33502 2.20165e-015 9.91533
    endloop
  endfacet
  facet normal 0 1 -2.22045e-016
    outer loop
      vertex 7.15969 2.10332e-015 9.47251
      vertex 0 4.43867e-015 19.99
      vertex 7.23342 2.15371e-015 9.69944
    endloop
  endfacet
  facet normal 0 1 -2.22045e-016
    outer loop
      vertex 7.11498 2.05128e-015 9.23813
      vertex 0 4.43867e-015 19.99
      vertex 7.15969 2.10332e-015 9.47251
    endloop
  endfacet
  facet normal 0 1 -2.22045e-016
    outer loop
      vertex 7.1 1.9984e-015 9
      vertex 0 4.43867e-015 19.99
      vertex 7.11498 2.05128e-015 9.23813
    endloop
  endfacet
  facet normal 0 1 -2.22045e-016
    outer loop
      vertex 8.64398 1.58399e-015 7.13365
      vertex 30.0472 2.22045e-018 0.01
      vertex 8.41287 1.59717e-015 7.19299
    endloop
  endfacet
  facet normal 0 2.22045e-016 1
    outer loop
      vertex 25.0058 -10.2 19.99
      vertex 13.4588 -4.5 19.99
      vertex 13.4588 -10.2 19.99
    endloop
  endfacet
  facet normal 0 2.22045e-016 1
    outer loop
      vertex 18.5118 -6.69 19.99
      vertex 13.4588 -4.5 19.99
      vertex 25.0058 -10.2 19.99
    endloop
  endfacet
  facet normal 0 2.22045e-016 1
    outer loop
      vertex 0 -4.5 19.99
      vertex 13.4588 -4.5 19.99
      vertex 18.5118 4.43867e-015 19.99
    endloop
  endfacet
  facet normal 0 2.22045e-016 1
    outer loop
      vertex 25.0058 -6.69 19.99
      vertex 18.5118 -6.69 19.99
      vertex 25.0058 -10.2 19.99
    endloop
  endfacet
  facet normal 0 2.22045e-016 1
    outer loop
      vertex 0 4.43867e-015 19.99
      vertex 0 -4.5 19.99
      vertex 18.5118 4.43867e-015 19.99
    endloop
  endfacet
  facet normal 0 2.22045e-016 1
    outer loop
      vertex 18.5118 -6.69 19.99
      vertex 18.5118 4.43867e-015 19.99
      vertex 13.4588 -4.5 19.99
    endloop
  endfacet
  facet normal 0 -1 2.22045e-016
    outer loop
      vertex 9.80898 -4.5 7.28083
      vertex 0 -4.5 0.01
      vertex 24.9942 -4.5 0.01
    endloop
  endfacet
  facet normal 0 -1 2.22045e-016
    outer loop
      vertex 13.4588 -4.5 19.99
      vertex 0 -4.5 19.99
      vertex 24.9942 -4.5 0.01
    endloop
  endfacet
  facet normal 0 -1 2.22045e-016
    outer loop
      vertex 0 -4.5 19.99
      vertex 0 -4.5 0.01
      vertex 7.11498 -4.5 8.76187
    endloop
  endfacet
  facet normal 0 -1 2.22045e-016
    outer loop
      vertex 10.0181 -4.5 7.39578
      vertex 9.80898 -4.5 7.28083
      vertex 24.9942 -4.5 0.01
    endloop
  endfacet
  facet normal 0 -1 2.22045e-016
    outer loop
      vertex 0 -4.5 19.99
      vertex 7.11498 -4.5 8.76187
      vertex 7.1 -4.5 9
    endloop
  endfacet
  facet normal 0 -1 2.22045e-016
    outer loop
      vertex 10.2111 -4.5 7.53603
      vertex 10.0181 -4.5 7.39578
      vertex 24.9942 -4.5 0.01
    endloop
  endfacet
  facet normal 0 -1 2.22045e-016
    outer loop
      vertex 0 -4.5 19.99
      vertex 7.1 -4.5 9
      vertex 7.11498 -4.5 9.23813
    endloop
  endfacet
  facet normal 0 -1 2.22045e-016
    outer loop
      vertex 10.385 -4.5 7.69936
      vertex 10.2111 -4.5 7.53603
      vertex 24.9942 -4.5 0.01
    endloop
  endfacet
  facet normal 0 -1 2.22045e-016
    outer loop
      vertex 0 -4.5 19.99
      vertex 7.11498 -4.5 9.23813
      vertex 7.15969 -4.5 9.47251
    endloop
  endfacet
  facet normal 0 -1 2.22045e-016
    outer loop
      vertex 10.5371 -4.5 7.88321
      vertex 10.385 -4.5 7.69936
      vertex 24.9942 -4.5 0.01
    endloop
  endfacet
  facet normal 0 -1 2.22045e-016
    outer loop
      vertex 0 -4.5 19.99
      vertex 7.15969 -4.5 9.47251
      vertex 7.23342 -4.5 9.69944
    endloop
  endfacet
  facet normal 0 -1 2.22045e-016
    outer loop
      vertex 0 -4.5 19.99
      vertex 7.23342 -4.5 9.69944
      vertex 7.33502 -4.5 9.91533
    endloop
  endfacet
  facet normal 0 -1 2.22045e-016
    outer loop
      vertex 0 -4.5 19.99
      vertex 7.33502 -4.5 9.91533
      vertex 7.46287 -4.5 10.1168
    endloop
  endfacet
  facet normal 0 -1 2.22045e-016
    outer loop
      vertex 10.7666 -4.5 8.30056
      vertex 10.665 -4.5 8.08467
      vertex 24.9942 -4.5 0.01
    endloop
  endfacet
  facet normal 0 -1 2.22045e-016
    outer loop
      vertex 0 -4.5 19.99
      vertex 7.46287 -4.5 10.1168
      vertex 7.61496 -4.5 10.3006
    endloop
  endfacet
  facet normal 0 -1 2.22045e-016
    outer loop
      vertex 10.8403 -4.5 8.52749
      vertex 10.7666 -4.5 8.30056
      vertex 24.9942 -4.5 0.01
    endloop
  endfacet
  facet normal 0 -1 2.22045e-016
    outer loop
      vertex 0 -4.5 19.99
      vertex 7.61496 -4.5 10.3006
      vertex 7.78889 -4.5 10.464
    endloop
  endfacet
  facet normal 0 -1 2.22045e-016
    outer loop
      vertex 10.885 -4.5 8.76187
      vertex 10.8403 -4.5 8.52749
      vertex 24.9942 -4.5 0.01
    endloop
  endfacet
  facet normal 0 -1 2.22045e-016
    outer loop
      vertex 0 -4.5 19.99
      vertex 7.78889 -4.5 10.464
      vertex 7.98193 -4.5 10.6042
    endloop
  endfacet
  facet normal 0 -1 2.22045e-016
    outer loop
      vertex 10.665 -4.5 8.08467
      vertex 10.5371 -4.5 7.88321
      vertex 24.9942 -4.5 0.01
    endloop
  endfacet
  facet normal 0 -1 2.22045e-016
    outer loop
      vertex 0 -4.5 19.99
      vertex 7.98193 -4.5 10.6042
      vertex 8.19102 -4.5 10.7192
    endloop
  endfacet
  facet normal 0 -1 2.22045e-016
    outer loop
      vertex 0 -4.5 19.99
      vertex 8.19102 -4.5 10.7192
      vertex 8.41287 -4.5 10.807
    endloop
  endfacet
  facet normal 0 -1 2.22045e-016
    outer loop
      vertex 10.885 -4.5 9.23813
      vertex 10.9 -4.5 9
      vertex 24.9942 -4.5 0.01
    endloop
  endfacet
  facet normal 0 -1 2.22045e-016
    outer loop
      vertex 0 -4.5 19.99
      vertex 8.41287 -4.5 10.807
      vertex 8.64398 -4.5 10.8663
    endloop
  endfacet
  facet normal 0 -1 2.22045e-016
    outer loop
      vertex 10.8403 -4.5 9.47251
      vertex 10.885 -4.5 9.23813
      vertex 24.9942 -4.5 0.01
    endloop
  endfacet
  facet normal 0 -1 2.22045e-016
    outer loop
      vertex 0 -4.5 19.99
      vertex 8.64398 -4.5 10.8663
      vertex 8.8807 -4.5 10.8963
    endloop
  endfacet
  facet normal 0 -1 2.22045e-016
    outer loop
      vertex 10.7666 -4.5 9.69944
      vertex 10.8403 -4.5 9.47251
      vertex 24.9942 -4.5 0.01
    endloop
  endfacet
  facet normal 0 -1 2.22045e-016
    outer loop
      vertex 0 -4.5 19.99
      vertex 8.8807 -4.5 10.8963
      vertex 9.1193 -4.5 10.8963
    endloop
  endfacet
  facet normal 0 -1 2.22045e-016
    outer loop
      vertex 10.665 -4.5 9.91533
      vertex 10.7666 -4.5 9.69944
      vertex 24.9942 -4.5 0.01
    endloop
  endfacet
  facet normal 0 -1 2.22045e-016
    outer loop
      vertex 0 -4.5 19.99
      vertex 9.1193 -4.5 10.8963
      vertex 9.35602 -4.5 10.8663
    endloop
  endfacet
  facet normal 0 -1 2.22045e-016
    outer loop
      vertex 10.5371 -4.5 10.1168
      vertex 10.665 -4.5 9.91533
      vertex 24.9942 -4.5 0.01
    endloop
  endfacet
  facet normal 0 -1 2.22045e-016
    outer loop
      vertex 0 -4.5 19.99
      vertex 9.35602 -4.5 10.8663
      vertex 9.58713 -4.5 10.807
    endloop
  endfacet
  facet normal 0 -1 2.22045e-016
    outer loop
      vertex 10.385 -4.5 10.3006
      vertex 10.5371 -4.5 10.1168
      vertex 24.9942 -4.5 0.01
    endloop
  endfacet
  facet normal 0 -1 2.22045e-016
    outer loop
      vertex 0 -4.5 19.99
      vertex 9.58713 -4.5 10.807
      vertex 9.80898 -4.5 10.7192
    endloop
  endfacet
  facet normal 0 -1 2.22045e-016
    outer loop
      vertex 0 -4.5 19.99
      vertex 10.0181 -4.5 10.6042
      vertex 24.9942 -4.5 0.01
    endloop
  endfacet
  facet normal 0 -1 2.22045e-016
    outer loop
      vertex 0 -4.5 19.99
      vertex 9.80898 -4.5 10.7192
      vertex 10.0181 -4.5 10.6042
    endloop
  endfacet
  facet normal 0 -1 2.22045e-016
    outer loop
      vertex 10.0181 -4.5 10.6042
      vertex 10.2111 -4.5 10.464
      vertex 24.9942 -4.5 0.01
    endloop
  endfacet
  facet normal 0 -1 2.22045e-016
    outer loop
      vertex 9.58713 -4.5 7.19299
      vertex 0 -4.5 0.01
      vertex 9.80898 -4.5 7.28083
    endloop
  endfacet
  facet normal 0 -1 2.22045e-016
    outer loop
      vertex 9.35602 -4.5 7.13365
      vertex 0 -4.5 0.01
      vertex 9.58713 -4.5 7.19299
    endloop
  endfacet
  facet normal 0 -1 2.22045e-016
    outer loop
      vertex 9.1193 -4.5 7.10375
      vertex 0 -4.5 0.01
      vertex 9.35602 -4.5 7.13365
    endloop
  endfacet
  facet normal 0 -1 2.22045e-016
    outer loop
      vertex 8.8807 -4.5 7.10375
      vertex 0 -4.5 0.01
      vertex 9.1193 -4.5 7.10375
    endloop
  endfacet
  facet normal 0 -1 2.22045e-016
    outer loop
      vertex 8.64398 -4.5 7.13365
      vertex 0 -4.5 0.01
      vertex 8.8807 -4.5 7.10375
    endloop
  endfacet
  facet normal 0 -1 2.22045e-016
    outer loop
      vertex 8.41287 -4.5 7.19299
      vertex 0 -4.5 0.01
      vertex 8.64398 -4.5 7.13365
    endloop
  endfacet
  facet normal 0 -1 2.22045e-016
    outer loop
      vertex 8.19102 -4.5 7.28083
      vertex 0 -4.5 0.01
      vertex 8.41287 -4.5 7.19299
    endloop
  endfacet
  facet normal 0 -1 2.22045e-016
    outer loop
      vertex 7.98193 -4.5 7.39578
      vertex 0 -4.5 0.01
      vertex 8.19102 -4.5 7.28083
    endloop
  endfacet
  facet normal 0 -1 2.22045e-016
    outer loop
      vertex 7.78889 -4.5 7.53603
      vertex 0 -4.5 0.01
      vertex 7.98193 -4.5 7.39578
    endloop
  endfacet
  facet normal 0 -1 2.22045e-016
    outer loop
      vertex 7.61496 -4.5 7.69936
      vertex 0 -4.5 0.01
      vertex 7.78889 -4.5 7.53603
    endloop
  endfacet
  facet normal 0 -1 2.22045e-016
    outer loop
      vertex 7.46287 -4.5 7.88321
      vertex 0 -4.5 0.01
      vertex 7.61496 -4.5 7.69936
    endloop
  endfacet
  facet normal 0 -1 2.22045e-016
    outer loop
      vertex 7.33502 -4.5 8.08467
      vertex 0 -4.5 0.01
      vertex 7.46287 -4.5 7.88321
    endloop
  endfacet
  facet normal 0 -1 2.22045e-016
    outer loop
      vertex 7.23342 -4.5 8.30056
      vertex 0 -4.5 0.01
      vertex 7.33502 -4.5 8.08467
    endloop
  endfacet
  facet normal 0 -1 2.22045e-016
    outer loop
      vertex 7.15969 -4.5 8.52749
      vertex 0 -4.5 0.01
      vertex 7.23342 -4.5 8.30056
    endloop
  endfacet
  facet normal 0 -1 2.22045e-016
    outer loop
      vertex 7.11498 -4.5 8.76187
      vertex 0 -4.5 0.01
      vertex 7.15969 -4.5 8.52749
    endloop
  endfacet
  facet normal 0 -1 2.22045e-016
    outer loop
      vertex 10.2111 -4.5 10.464
      vertex 10.385 -4.5 10.3006
      vertex 24.9942 -4.5 0.01
    endloop
  endfacet
  facet normal 0 -1 2.22045e-016
    outer loop
      vertex 10.9 -4.5 9
      vertex 10.885 -4.5 8.76187
      vertex 24.9942 -4.5 0.01
    endloop
  endfacet
  facet normal 0.866025 1.11022e-016 0.5
    outer loop
      vertex 18.5118 -6.69 19.99
      vertex 30.0472 -6.69 0.01
      vertex 30.0472 2.22045e-018 0.01
    endloop
  endfacet
  facet normal 0.866025 1.11022e-016 0.5
    outer loop
      vertex 18.5118 4.43867e-015 19.99
      vertex 18.5118 -6.69 19.99
      vertex 30.0472 2.22045e-018 0.01
    endloop
  endfacet
  facet normal -0.866025 -1.11022e-016 -0.5
    outer loop
      vertex 13.4588 -4.5 19.99
      vertex 24.9942 -4.5 0.01
      vertex 13.4588 -10.2 19.99
    endloop
  endfacet
  facet normal -0.866025 -1.11022e-016 -0.5
    outer loop
      vertex 13.4588 -10.2 19.99
      vertex 24.9942 -4.5 0.01
      vertex 24.9942 -10.2 0.01
    endloop
  endfacet
  facet normal 0 -1 2.22045e-016
    outer loop
      vertex 25.0058 -10.2 19.99
      vertex 13.4588 -10.2 19.99
      vertex 24.9942 -10.2 0.01
    endloop
  endfacet
  facet normal 0 -1 2.22045e-016
    outer loop
      vertex 36.5412 -10.2 0.01
      vertex 25.0058 -10.2 19.99
      vertex 24.9942 -10.2 0.01
    endloop
  endfacet
  facet normal 0.866025 1.11022e-016 0.5
    outer loop
      vertex 36.5412 -6.69 0.01
      vertex 25.0058 -6.69 19.99
      vertex 25.0058 -10.2 19.99
    endloop
  endfacet
  facet normal 0.866025 1.11022e-016 0.5
    outer loop
      vertex 36.5412 -10.2 0.01
      vertex 36.5412 -6.69 0.01
      vertex 25.0058 -10.2 19.99
    endloop
  endfacet
  facet normal 0 1 -2.22045e-016
    outer loop
      vertex 36.5412 -6.69 0.01
      vertex 30.0472 -6.69 0.01
      vertex 25.0058 -6.69 19.99
    endloop
  endfacet
  facet normal 0 1 -2.22045e-016
    outer loop
      vertex 25.0058 -6.69 19.99
      vertex 30.0472 -6.69 0.01
      vertex 18.5118 -6.69 19.99
    endloop
  endfacet
  facet normal 0.998027 -1.39422e-017 -0.0627903
    outer loop
      vertex 7.11498 2.05128e-015 9.23813
      vertex 7.11498 -4.5 9.23813
      vertex 7.1 -4.5 9
    endloop
  endfacet
  facet normal 0.998027 -1.39422e-017 -0.0627903
    outer loop
      vertex 7.1 1.9984e-015 9
      vertex 7.11498 2.05128e-015 9.23813
      vertex 7.1 -4.5 9
    endloop
  endfacet
  facet normal 0.998027 1.39422e-017 0.0627903
    outer loop
      vertex 7.1 -4.5 9
      vertex 7.11498 -4.5 8.76187
      vertex 7.11498 1.94553e-015 8.76187
    endloop
  endfacet
  facet normal 0.998027 1.39422e-017 0.0627903
    outer loop
      vertex 7.1 1.9984e-015 9
      vertex 7.1 -4.5 9
      vertex 7.11498 1.94553e-015 8.76187
    endloop
  endfacet
  facet normal 0.982287 -4.1607e-017 -0.187381
    outer loop
      vertex 7.15969 2.10332e-015 9.47251
      vertex 7.15969 -4.5 9.47251
      vertex 7.11498 -4.5 9.23813
    endloop
  endfacet
  facet normal 0.982287 -4.1607e-017 -0.187381
    outer loop
      vertex 7.11498 2.05128e-015 9.23813
      vertex 7.15969 2.10332e-015 9.47251
      vertex 7.11498 -4.5 9.23813
    endloop
  endfacet
  facet normal 0.951056 -6.86158e-017 -0.309018
    outer loop
      vertex 7.23342 2.15371e-015 9.69944
      vertex 7.23342 -4.5 9.69944
      vertex 7.15969 -4.5 9.47251
    endloop
  endfacet
  facet normal 0.951056 -6.86158e-017 -0.309018
    outer loop
      vertex 7.15969 2.10332e-015 9.47251
      vertex 7.23342 2.15371e-015 9.69944
      vertex 7.15969 -4.5 9.47251
    endloop
  endfacet
  facet normal 0.904828 -9.45416e-017 -0.425778
    outer loop
      vertex 7.33502 2.20165e-015 9.91533
      vertex 7.33502 -4.5 9.91533
      vertex 7.23342 -4.5 9.69944
    endloop
  endfacet
  facet normal 0.904828 -9.45416e-017 -0.425778
    outer loop
      vertex 7.23342 2.15371e-015 9.69944
      vertex 7.33502 2.20165e-015 9.91533
      vertex 7.23342 -4.5 9.69944
    endloop
  endfacet
  facet normal 0.844327 -1.18978e-016 -0.535829
    outer loop
      vertex 7.46287 2.24638e-015 10.1168
      vertex 7.46287 -4.5 10.1168
      vertex 7.33502 -4.5 9.91533
    endloop
  endfacet
  facet normal 0.844327 -1.18978e-016 -0.535829
    outer loop
      vertex 7.33502 2.20165e-015 9.91533
      vertex 7.46287 2.24638e-015 10.1168
      vertex 7.33502 -4.5 9.91533
    endloop
  endfacet
  facet normal 0.770514 -1.41536e-016 -0.637423
    outer loop
      vertex 7.61496 2.2872e-015 10.3006
      vertex 7.61496 -4.5 10.3006
      vertex 7.46287 -4.5 10.1168
    endloop
  endfacet
  facet normal 0.770514 -1.41536e-016 -0.637423
    outer loop
      vertex 7.46287 2.24638e-015 10.1168
      vertex 7.61496 2.2872e-015 10.3006
      vertex 7.46287 -4.5 10.1168
    endloop
  endfacet
  facet normal 0.684547 -1.61864e-016 -0.728968
    outer loop
      vertex 7.78889 -4.5 10.464
      vertex 7.61496 -4.5 10.3006
      vertex 7.78889 2.32347e-015 10.464
    endloop
  endfacet
  facet normal 0.684547 -1.61864e-016 -0.728968
    outer loop
      vertex 7.78889 2.32347e-015 10.464
      vertex 7.61496 -4.5 10.3006
      vertex 7.61496 2.2872e-015 10.3006
    endloop
  endfacet
  facet normal 0.587785 -1.79638e-016 -0.809017
    outer loop
      vertex 7.98193 -4.5 10.6042
      vertex 7.78889 -4.5 10.464
      vertex 7.98193 2.35461e-015 10.6042
    endloop
  endfacet
  facet normal 0.587785 -1.79638e-016 -0.809017
    outer loop
      vertex 7.98193 2.35461e-015 10.6042
      vertex 7.78889 -4.5 10.464
      vertex 7.78889 2.32347e-015 10.464
    endloop
  endfacet
  facet normal 0.481753 -1.94579e-016 -0.876307
    outer loop
      vertex 8.19102 -4.5 10.7192
      vertex 7.98193 -4.5 10.6042
      vertex 8.19102 2.38013e-015 10.7192
    endloop
  endfacet
  facet normal 0.481753 -1.94579e-016 -0.876307
    outer loop
      vertex 8.19102 2.38013e-015 10.7192
      vertex 7.98193 -4.5 10.6042
      vertex 7.98193 2.35461e-015 10.6042
    endloop
  endfacet
  facet normal 0.368124 -2.06452e-016 -0.929777
    outer loop
      vertex 8.41287 -4.5 10.807
      vertex 8.19102 -4.5 10.7192
      vertex 8.41287 2.39964e-015 10.807
    endloop
  endfacet
  facet normal 0.368124 -2.06452e-016 -0.929777
    outer loop
      vertex 8.41287 2.39964e-015 10.807
      vertex 8.19102 -4.5 10.7192
      vertex 8.19102 2.38013e-015 10.7192
    endloop
  endfacet
  facet normal 0.248692 -2.15069e-016 -0.968583
    outer loop
      vertex 8.64398 -4.5 10.8663
      vertex 8.41287 -4.5 10.807
      vertex 8.64398 2.41281e-015 10.8663
    endloop
  endfacet
  facet normal 0.248692 -2.15069e-016 -0.968583
    outer loop
      vertex 8.64398 2.41281e-015 10.8663
      vertex 8.41287 -4.5 10.807
      vertex 8.41287 2.39964e-015 10.807
    endloop
  endfacet
  facet normal 0.125333 -2.20294e-016 -0.992115
    outer loop
      vertex 8.8807 -4.5 10.8963
      vertex 8.64398 -4.5 10.8663
      vertex 8.8807 2.41945e-015 10.8963
    endloop
  endfacet
  facet normal 0.125333 -2.20294e-016 -0.992115
    outer loop
      vertex 8.8807 2.41945e-015 10.8963
      vertex 8.64398 -4.5 10.8663
      vertex 8.64398 2.41281e-015 10.8663
    endloop
  endfacet
  facet normal 0 -2.22045e-016 -1
    outer loop
      vertex 9.1193 -4.5 10.8963
      vertex 8.8807 -4.5 10.8963
      vertex 9.1193 2.41945e-015 10.8963
    endloop
  endfacet
  facet normal 0 -2.22045e-016 -1
    outer loop
      vertex 9.1193 2.41945e-015 10.8963
      vertex 8.8807 -4.5 10.8963
      vertex 8.8807 2.41945e-015 10.8963
    endloop
  endfacet
  facet normal -0.125333 -2.20294e-016 -0.992115
    outer loop
      vertex 9.35602 -4.5 10.8663
      vertex 9.1193 -4.5 10.8963
      vertex 9.35602 2.41281e-015 10.8663
    endloop
  endfacet
  facet normal -0.125333 -2.20294e-016 -0.992115
    outer loop
      vertex 9.35602 2.41281e-015 10.8663
      vertex 9.1193 -4.5 10.8963
      vertex 9.1193 2.41945e-015 10.8963
    endloop
  endfacet
  facet normal -0.248692 -2.15069e-016 -0.968583
    outer loop
      vertex 9.58713 -4.5 10.807
      vertex 9.35602 -4.5 10.8663
      vertex 9.58713 2.39964e-015 10.807
    endloop
  endfacet
  facet normal -0.248692 -2.15069e-016 -0.968583
    outer loop
      vertex 9.58713 2.39964e-015 10.807
      vertex 9.35602 -4.5 10.8663
      vertex 9.35602 2.41281e-015 10.8663
    endloop
  endfacet
  facet normal -0.368124 -2.06452e-016 -0.929777
    outer loop
      vertex 9.80898 -4.5 10.7192
      vertex 9.58713 -4.5 10.807
      vertex 9.80898 2.38013e-015 10.7192
    endloop
  endfacet
  facet normal -0.368124 -2.06452e-016 -0.929777
    outer loop
      vertex 9.80898 2.38013e-015 10.7192
      vertex 9.58713 -4.5 10.807
      vertex 9.58713 2.39964e-015 10.807
    endloop
  endfacet
  facet normal -0.481753 -1.94579e-016 -0.876307
    outer loop
      vertex 10.0181 -4.5 10.6042
      vertex 9.80898 -4.5 10.7192
      vertex 10.0181 2.35461e-015 10.6042
    endloop
  endfacet
  facet normal -0.481753 -1.94579e-016 -0.876307
    outer loop
      vertex 10.0181 2.35461e-015 10.6042
      vertex 9.80898 -4.5 10.7192
      vertex 9.80898 2.38013e-015 10.7192
    endloop
  endfacet
  facet normal -0.587785 -1.79638e-016 -0.809017
    outer loop
      vertex 10.2111 -4.5 10.464
      vertex 10.0181 -4.5 10.6042
      vertex 10.2111 2.32347e-015 10.464
    endloop
  endfacet
  facet normal -0.587785 -1.79638e-016 -0.809017
    outer loop
      vertex 10.2111 2.32347e-015 10.464
      vertex 10.0181 -4.5 10.6042
      vertex 10.0181 2.35461e-015 10.6042
    endloop
  endfacet
  facet normal -0.684547 -1.61864e-016 -0.728968
    outer loop
      vertex 10.385 -4.5 10.3006
      vertex 10.2111 -4.5 10.464
      vertex 10.385 2.2872e-015 10.3006
    endloop
  endfacet
  facet normal -0.684547 -1.61864e-016 -0.728968
    outer loop
      vertex 10.385 2.2872e-015 10.3006
      vertex 10.2111 -4.5 10.464
      vertex 10.2111 2.32347e-015 10.464
    endloop
  endfacet
  facet normal -0.770514 -1.41536e-016 -0.637423
    outer loop
      vertex 10.5371 -4.5 10.1168
      vertex 10.385 -4.5 10.3006
      vertex 10.5371 2.24638e-015 10.1168
    endloop
  endfacet
  facet normal -0.770514 -1.41536e-016 -0.637423
    outer loop
      vertex 10.5371 2.24638e-015 10.1168
      vertex 10.385 -4.5 10.3006
      vertex 10.385 2.2872e-015 10.3006
    endloop
  endfacet
  facet normal -0.844327 -1.18978e-016 -0.535829
    outer loop
      vertex 10.665 -4.5 9.91533
      vertex 10.5371 -4.5 10.1168
      vertex 10.665 2.20165e-015 9.91533
    endloop
  endfacet
  facet normal -0.844327 -1.18978e-016 -0.535829
    outer loop
      vertex 10.665 2.20165e-015 9.91533
      vertex 10.5371 -4.5 10.1168
      vertex 10.5371 2.24638e-015 10.1168
    endloop
  endfacet
  facet normal -0.904828 -9.45416e-017 -0.425778
    outer loop
      vertex 10.7666 -4.5 9.69944
      vertex 10.665 -4.5 9.91533
      vertex 10.7666 2.15371e-015 9.69944
    endloop
  endfacet
  facet normal -0.904828 -9.45416e-017 -0.425778
    outer loop
      vertex 10.7666 2.15371e-015 9.69944
      vertex 10.665 -4.5 9.91533
      vertex 10.665 2.20165e-015 9.91533
    endloop
  endfacet
  facet normal -0.951056 -6.86158e-017 -0.309018
    outer loop
      vertex 10.8403 -4.5 9.47251
      vertex 10.7666 -4.5 9.69944
      vertex 10.8403 2.10332e-015 9.47251
    endloop
  endfacet
  facet normal -0.951056 -6.86158e-017 -0.309018
    outer loop
      vertex 10.8403 2.10332e-015 9.47251
      vertex 10.7666 -4.5 9.69944
      vertex 10.7666 2.15371e-015 9.69944
    endloop
  endfacet
  facet normal -0.982287 -4.1607e-017 -0.187381
    outer loop
      vertex 10.885 -4.5 9.23813
      vertex 10.8403 -4.5 9.47251
      vertex 10.885 2.05128e-015 9.23813
    endloop
  endfacet
  facet normal -0.982287 -4.1607e-017 -0.187381
    outer loop
      vertex 10.885 2.05128e-015 9.23813
      vertex 10.8403 -4.5 9.47251
      vertex 10.8403 2.10332e-015 9.47251
    endloop
  endfacet
  facet normal -0.998027 -1.39422e-017 -0.0627903
    outer loop
      vertex 10.9 -4.5 9
      vertex 10.885 -4.5 9.23813
      vertex 10.9 1.9984e-015 9
    endloop
  endfacet
  facet normal -0.998027 -1.39422e-017 -0.0627903
    outer loop
      vertex 10.9 1.9984e-015 9
      vertex 10.885 -4.5 9.23813
      vertex 10.885 2.05128e-015 9.23813
    endloop
  endfacet
  facet normal -0.998027 1.39422e-017 0.0627903
    outer loop
      vertex 10.9 -4.5 9
      vertex 10.9 1.9984e-015 9
      vertex 10.885 -4.5 8.76187
    endloop
  endfacet
  facet normal -0.998027 1.39422e-017 0.0627903
    outer loop
      vertex 10.885 -4.5 8.76187
      vertex 10.9 1.9984e-015 9
      vertex 10.885 1.94553e-015 8.76187
    endloop
  endfacet
  facet normal -0.982287 4.1607e-017 0.187381
    outer loop
      vertex 10.885 -4.5 8.76187
      vertex 10.885 1.94553e-015 8.76187
      vertex 10.8403 -4.5 8.52749
    endloop
  endfacet
  facet normal -0.982287 4.1607e-017 0.187381
    outer loop
      vertex 10.8403 -4.5 8.52749
      vertex 10.885 1.94553e-015 8.76187
      vertex 10.8403 1.89348e-015 8.52749
    endloop
  endfacet
  facet normal -0.951056 6.86158e-017 0.309018
    outer loop
      vertex 10.8403 -4.5 8.52749
      vertex 10.8403 1.89348e-015 8.52749
      vertex 10.7666 -4.5 8.30056
    endloop
  endfacet
  facet normal -0.951056 6.86158e-017 0.309018
    outer loop
      vertex 10.7666 -4.5 8.30056
      vertex 10.8403 1.89348e-015 8.52749
      vertex 10.7666 1.8431e-015 8.30056
    endloop
  endfacet
  facet normal -0.904828 9.45416e-017 0.425778
    outer loop
      vertex 10.7666 -4.5 8.30056
      vertex 10.7666 1.8431e-015 8.30056
      vertex 10.665 -4.5 8.08467
    endloop
  endfacet
  facet normal -0.904828 9.45416e-017 0.425778
    outer loop
      vertex 10.665 -4.5 8.08467
      vertex 10.7666 1.8431e-015 8.30056
      vertex 10.665 1.79516e-015 8.08467
    endloop
  endfacet
  facet normal -0.844327 1.18978e-016 0.535829
    outer loop
      vertex 10.665 -4.5 8.08467
      vertex 10.665 1.79516e-015 8.08467
      vertex 10.5371 -4.5 7.88321
    endloop
  endfacet
  facet normal -0.844327 1.18978e-016 0.535829
    outer loop
      vertex 10.5371 -4.5 7.88321
      vertex 10.665 1.79516e-015 8.08467
      vertex 10.5371 1.75042e-015 7.88321
    endloop
  endfacet
  facet normal -0.770514 1.41536e-016 0.637423
    outer loop
      vertex 10.5371 -4.5 7.88321
      vertex 10.5371 1.75042e-015 7.88321
      vertex 10.385 -4.5 7.69936
    endloop
  endfacet
  facet normal -0.770514 1.41536e-016 0.637423
    outer loop
      vertex 10.385 -4.5 7.69936
      vertex 10.5371 1.75042e-015 7.88321
      vertex 10.385 1.7096e-015 7.69936
    endloop
  endfacet
  facet normal -0.684547 1.61864e-016 0.728968
    outer loop
      vertex 10.2111 -4.5 7.53603
      vertex 10.385 -4.5 7.69936
      vertex 10.385 1.7096e-015 7.69936
    endloop
  endfacet
  facet normal -0.684547 1.61864e-016 0.728968
    outer loop
      vertex 10.2111 1.67333e-015 7.53602
      vertex 10.2111 -4.5 7.53603
      vertex 10.385 1.7096e-015 7.69936
    endloop
  endfacet
  facet normal -0.587785 1.79638e-016 0.809017
    outer loop
      vertex 10.0181 -4.5 7.39578
      vertex 10.2111 -4.5 7.53603
      vertex 10.2111 1.67333e-015 7.53602
    endloop
  endfacet
  facet normal -0.587785 1.79638e-016 0.809017
    outer loop
      vertex 10.0181 1.64219e-015 7.39578
      vertex 10.0181 -4.5 7.39578
      vertex 10.2111 1.67333e-015 7.53602
    endloop
  endfacet
  facet normal -0.481753 1.94579e-016 0.876307
    outer loop
      vertex 9.80898 -4.5 7.28083
      vertex 10.0181 -4.5 7.39578
      vertex 10.0181 1.64219e-015 7.39578
    endloop
  endfacet
  facet normal -0.481753 1.94579e-016 0.876307
    outer loop
      vertex 9.80898 1.61667e-015 7.28083
      vertex 9.80898 -4.5 7.28083
      vertex 10.0181 1.64219e-015 7.39578
    endloop
  endfacet
  facet normal -0.368124 2.06452e-016 0.929777
    outer loop
      vertex 9.58713 -4.5 7.19299
      vertex 9.80898 -4.5 7.28083
      vertex 9.80898 1.61667e-015 7.28083
    endloop
  endfacet
  facet normal -0.368124 2.06452e-016 0.929777
    outer loop
      vertex 9.58713 1.59717e-015 7.19299
      vertex 9.58713 -4.5 7.19299
      vertex 9.80898 1.61667e-015 7.28083
    endloop
  endfacet
  facet normal -0.248692 2.15069e-016 0.968583
    outer loop
      vertex 9.35602 -4.5 7.13365
      vertex 9.58713 -4.5 7.19299
      vertex 9.58713 1.59717e-015 7.19299
    endloop
  endfacet
  facet normal -0.248692 2.15069e-016 0.968583
    outer loop
      vertex 9.35602 1.58399e-015 7.13365
      vertex 9.35602 -4.5 7.13365
      vertex 9.58713 1.59717e-015 7.19299
    endloop
  endfacet
  facet normal -0.125333 2.20294e-016 0.992115
    outer loop
      vertex 9.1193 -4.5 7.10375
      vertex 9.35602 -4.5 7.13365
      vertex 9.35602 1.58399e-015 7.13365
    endloop
  endfacet
  facet normal -0.125333 2.20294e-016 0.992115
    outer loop
      vertex 9.1193 1.57735e-015 7.10375
      vertex 9.1193 -4.5 7.10375
      vertex 9.35602 1.58399e-015 7.13365
    endloop
  endfacet
  facet normal 0 2.22045e-016 1
    outer loop
      vertex 8.8807 -4.5 7.10375
      vertex 9.1193 -4.5 7.10375
      vertex 9.1193 1.57735e-015 7.10375
    endloop
  endfacet
  facet normal 0 2.22045e-016 1
    outer loop
      vertex 8.8807 1.57735e-015 7.10375
      vertex 8.8807 -4.5 7.10375
      vertex 9.1193 1.57735e-015 7.10375
    endloop
  endfacet
  facet normal 0.125333 2.20294e-016 0.992115
    outer loop
      vertex 8.64398 -4.5 7.13365
      vertex 8.8807 -4.5 7.10375
      vertex 8.8807 1.57735e-015 7.10375
    endloop
  endfacet
  facet normal 0.125333 2.20294e-016 0.992115
    outer loop
      vertex 8.64398 1.58399e-015 7.13365
      vertex 8.64398 -4.5 7.13365
      vertex 8.8807 1.57735e-015 7.10375
    endloop
  endfacet
  facet normal 0.248692 2.15069e-016 0.968583
    outer loop
      vertex 8.41287 -4.5 7.19299
      vertex 8.64398 -4.5 7.13365
      vertex 8.64398 1.58399e-015 7.13365
    endloop
  endfacet
  facet normal 0.248692 2.15069e-016 0.968583
    outer loop
      vertex 8.41287 1.59717e-015 7.19299
      vertex 8.41287 -4.5 7.19299
      vertex 8.64398 1.58399e-015 7.13365
    endloop
  endfacet
  facet normal 0.368124 2.06452e-016 0.929777
    outer loop
      vertex 8.19102 -4.5 7.28083
      vertex 8.41287 -4.5 7.19299
      vertex 8.41287 1.59717e-015 7.19299
    endloop
  endfacet
  facet normal 0.368124 2.06452e-016 0.929777
    outer loop
      vertex 8.19102 1.61667e-015 7.28083
      vertex 8.19102 -4.5 7.28083
      vertex 8.41287 1.59717e-015 7.19299
    endloop
  endfacet
  facet normal 0.481753 1.94579e-016 0.876307
    outer loop
      vertex 7.98193 -4.5 7.39578
      vertex 8.19102 -4.5 7.28083
      vertex 8.19102 1.61667e-015 7.28083
    endloop
  endfacet
  facet normal 0.481753 1.94579e-016 0.876307
    outer loop
      vertex 7.98193 1.64219e-015 7.39578
      vertex 7.98193 -4.5 7.39578
      vertex 8.19102 1.61667e-015 7.28083
    endloop
  endfacet
  facet normal 0.587785 1.79638e-016 0.809017
    outer loop
      vertex 7.78889 -4.5 7.53603
      vertex 7.98193 -4.5 7.39578
      vertex 7.98193 1.64219e-015 7.39578
    endloop
  endfacet
  facet normal 0.587785 1.79638e-016 0.809017
    outer loop
      vertex 7.78889 1.67333e-015 7.53602
      vertex 7.78889 -4.5 7.53603
      vertex 7.98193 1.64219e-015 7.39578
    endloop
  endfacet
  facet normal 0.684547 1.61864e-016 0.728968
    outer loop
      vertex 7.61496 -4.5 7.69936
      vertex 7.78889 -4.5 7.53603
      vertex 7.78889 1.67333e-015 7.53602
    endloop
  endfacet
  facet normal 0.684547 1.61864e-016 0.728968
    outer loop
      vertex 7.61496 1.7096e-015 7.69936
      vertex 7.61496 -4.5 7.69936
      vertex 7.78889 1.67333e-015 7.53602
    endloop
  endfacet
  facet normal 0.770514 1.41536e-016 0.637423
    outer loop
      vertex 7.46287 -4.5 7.88321
      vertex 7.61496 -4.5 7.69936
      vertex 7.61496 1.7096e-015 7.69936
    endloop
  endfacet
  facet normal 0.770514 1.41536e-016 0.637423
    outer loop
      vertex 7.46287 1.75042e-015 7.88321
      vertex 7.46287 -4.5 7.88321
      vertex 7.61496 1.7096e-015 7.69936
    endloop
  endfacet
  facet normal 0.844327 1.18978e-016 0.535829
    outer loop
      vertex 7.33502 -4.5 8.08467
      vertex 7.46287 -4.5 7.88321
      vertex 7.46287 1.75042e-015 7.88321
    endloop
  endfacet
  facet normal 0.844327 1.18978e-016 0.535829
    outer loop
      vertex 7.33502 1.79516e-015 8.08467
      vertex 7.33502 -4.5 8.08467
      vertex 7.46287 1.75042e-015 7.88321
    endloop
  endfacet
  facet normal 0.904828 9.45416e-017 0.425778
    outer loop
      vertex 7.23342 -4.5 8.30056
      vertex 7.33502 -4.5 8.08467
      vertex 7.33502 1.79516e-015 8.08467
    endloop
  endfacet
  facet normal 0.904828 9.45416e-017 0.425778
    outer loop
      vertex 7.23342 1.8431e-015 8.30056
      vertex 7.23342 -4.5 8.30056
      vertex 7.33502 1.79516e-015 8.08467
    endloop
  endfacet
  facet normal 0.951056 6.86158e-017 0.309018
    outer loop
      vertex 7.15969 -4.5 8.52749
      vertex 7.23342 -4.5 8.30056
      vertex 7.23342 1.8431e-015 8.30056
    endloop
  endfacet
  facet normal 0.951056 6.86158e-017 0.309018
    outer loop
      vertex 7.15969 1.89348e-015 8.52749
      vertex 7.15969 -4.5 8.52749
      vertex 7.23342 1.8431e-015 8.30056
    endloop
  endfacet
  facet normal 0.982287 4.1607e-017 0.187381
    outer loop
      vertex 7.11498 -4.5 8.76187
      vertex 7.15969 -4.5 8.52749
      vertex 7.15969 1.89348e-015 8.52749
    endloop
  endfacet
  facet normal 0.982287 4.1607e-017 0.187381
    outer loop
      vertex 7.11498 1.94553e-015 8.76187
      vertex 7.11498 -4.5 8.76187
      vertex 7.15969 1.89348e-015 8.52749
    endloop
  endfacet
endsolid OpenSCAD_Model
